<svg xmlns="http://www.w3.org/2000/svg" viewBox="0 0 1000 439.1" data-c="AS"><path data-n="Eastern" data-pt="Leste" data-es="Oriental" data-en="Eastern District" d="M23.89 299.95L23.92 299.84L24.02 299.81L24.23 299.86L24.26 299.81L24.3 299.88L24.06 299.94L23.99 300.05L23.93 300.05L23.89 299.95Z"/><path data-n="Manu's" data-pt="Manus" data-en="Manu'a Islands" d="M27.33 299.7L27.41 299.82L27.21 299.88L27.12 299.75L27.33 299.7ZM26.69 299.52L26.81 299.53L26.75 299.58L26.69 299.52Z"/><path data-n="Rose Atoll" data-pt="Atol Rose" d="M31.27 300.86L31.23 300.83L31.27 300.86Z"/><path data-n="Swain's Island" data-pt="Ilha Swains" data-es="Islas Swain" data-en="Swains Island" d="M20.03 287.77L20.02 287.82L20.03 287.77Z"/><path data-n="Western" data-pt="Ocidental" data-es="Occidente" data-en="Western District" d="M23.99 300.05L23.9 300.27L23.61 300.06L23.71 299.97L23.89 299.95L23.93 300.05L23.99 300.05Z"/></svg>