<svg xmlns="http://www.w3.org/2000/svg" viewBox="0 0 1000 439.1" data-c="BA"><path data-r="BIH" data-n="Federacija Bosne i Hercegovine" d="M543.79 90.48L543.57 90.43L543.46 90.52L543.21 90.38L543.37 90.42L543.27 90.35L543.46 90.28L543.45 90.19L543.25 89.9L542.87 89.68L542.75 89.47L542.45 89.19L542.38 89.03L542.36 88.68L542.03 88.6L541.74 88.41L540.9 87.7L540.8 87.48L540.32 87L540.16 86.93L540.09 86.8L539.92 86.76L539.56 86.31L539.47 86.08L539.5 85.86L539.33 85.78L539.37 85.65L539.23 85.32L538.96 85.26L539.04 85.11L538.99 84.99L538.84 84.95L538.62 84.68L538.43 84.77L538.22 84.54L538.18 84.43L538.31 84.3L538.18 84.04L538.26 83.83L538.21 83.68L538.27 83.49L538.24 83.28L538.33 83.15L538.78 83.12L539.04 83.46L539.33 83.71L539.58 83.81L539.65 83.75L539.67 83.84L539.47 83.95L539.58 84.13L540.57 84.26L540.79 84.42L540.93 84.63L540.94 84.81L541.05 84.87L541.1 85.34L541.04 85.52L540.8 85.53L540.33 85.38L540.19 85.38L540.21 85.5L540.84 85.89L540.96 86.06L541.59 86.37L541.75 86.49L541.83 86.71L542.12 86.76L542.16 86.52L541.81 85.94L541.77 85.52L542.4 85.57L542.65 85.81L543.21 85.79L543.63 85.48L543.61 85.24L543.45 85.11L543.38 84.95L543.49 84.69L543.57 84.67L543.8 84.69L544.13 85.14L544.74 85.13L544.65 84.9L543.94 84.63L543.94 84.48L544.43 84.44L544.6 84.09L544.9 84.1L544.94 84.24L545.29 84.2L545.53 84.3L545.63 84.61L545.7 84.61L545.71 84.67L545.7 84.74L545.57 84.82L545.55 84.93L545.88 85.26L545.98 85.23L546.1 84.97L546.27 84.97L546.32 85.46L546.1 85.62L545.89 85.65L545.83 85.79L545.69 85.89L545.85 86.29L545.8 86.5L545.57 86.76L545.37 86.82L545.23 87L545.25 87.47L544.94 87.51L545.08 87.81L545.25 87.82L545.58 87.99L545.73 88L545.86 87.72L546.2 87.71L546.58 87.87L546.66 88.06L546.35 88.24L545.97 88.32L545.69 88.25L545.21 87.96L545.09 87.96L545.02 88.39L545.11 88.76L544.22 88.74L544.36 89.5L544.21 89.72L544.39 89.82L544.32 90.13L544.37 90.42L544.47 90.61L545.31 91.31L545.32 91.54L545.24 91.44L545.03 91.4L544.35 91L543.99 90.75L543.9 90.64L543.88 90.49L543.79 90.48ZM544.82 83.6L544.96 83.64L544.97 83.51L545.13 83.5L545.22 83.61L545.3 83.54L545.42 83.73L545.6 83.82L545.63 83.92L545.56 83.99L545.74 84.25L545.62 84.31L545.6 84.17L545.46 84.14L545.37 84.01L544.95 83.85L544.84 83.74L544.82 83.6ZM544.2 83.32L544.68 83.49L544.74 83.54L544.71 83.66L544.51 83.74L544.48 83.85L544.29 83.84L543.99 83.52L544.2 83.32Z"/><path data-r="BRC" data-n="Brčko Distrikt" data-pt="Brčko" data-es="Brčko" data-en="Brčko" d="M545.75 84.2L546.08 84.24L546.09 84.3L546 84.35L545.95 84.49L545.63 84.61L545.53 84.3L545.57 84.15L545.62 84.31L545.75 84.2Z"/><path data-r="SRP" data-n="Republika Srpska" d="M545.5 91.58L545.32 91.54L545.31 91.31L544.42 90.54L544.32 90.13L544.39 89.82L544.21 89.72L544.36 89.5L544.22 88.74L545.11 88.76L545.02 88.39L545.09 87.96L545.21 87.96L545.69 88.25L545.97 88.32L546.35 88.24L546.66 88.06L546.58 87.87L546.2 87.71L545.86 87.72L545.73 88L545.58 87.99L545.25 87.82L545.08 87.81L544.94 87.51L545.25 87.47L545.23 87L545.37 86.82L545.57 86.76L545.8 86.5L545.85 86.29L545.72 86.02L545.71 85.84L545.83 85.79L545.89 85.65L546.1 85.62L546.33 85.42L546.27 84.97L546.1 84.97L545.98 85.23L545.88 85.26L545.59 84.99L545.57 84.82L545.7 84.74L545.74 84.56L545.95 84.49L546.08 84.24L546.34 84.19L546.57 84.04L546.62 84.1L546.88 84.09L547.06 84.24L546.96 84.71L546.7 85.13L546.67 85.29L546.57 85.33L546.63 85.61L546.57 85.82L546.71 86.04L547.08 86.1L547.25 86.37L547.46 86.52L547.51 86.49L547.82 86.81L547.9 86.8L547.91 86.91L547.78 87.03L547.32 87.06L547.09 86.93L547.02 86.97L547 87.11L547.63 87.73L547.77 88.01L547.72 88.15L547.77 88.35L547.62 88.34L547.58 88.44L547.4 88.22L547.18 88.28L547.11 88.46L546.87 88.45L546.72 88.54L546.57 88.41L546.36 88.54L546.48 88.68L546.47 88.75L546.54 88.74L546.64 88.85L546.82 89.18L546.71 89.21L546.64 89.31L546.45 89.06L546.2 89.07L546.23 89.13L545.85 89.42L545.91 89.45L545.77 89.77L545.85 90.1L545.6 90.09L545.4 90.19L545.37 90.37L545.49 90.61L545.43 90.75L545.71 91.15L545.75 91.33L545.61 91.49L545.63 91.57L545.5 91.58ZM540.98 82.92L541.05 83.07L541.1 83.06L541.07 83.02L541.17 83.08L541.19 83.04L541.2 83.13L541.26 83.09L541.32 83.18L541.65 83.34L541.79 83.32L541.84 83.21L542.13 83.37L542.27 83.3L542.29 83.39L542.4 83.36L542.38 83.45L542.6 83.43L542.85 83.29L543.25 83.61L543.43 83.56L543.67 83.34L543.99 83.5L544.07 83.65L544.35 83.85L544.48 83.85L544.51 83.74L544.71 83.66L544.74 83.54L544.95 83.85L545.57 84.15L545.53 84.3L545.29 84.2L544.94 84.24L544.9 84.1L544.66 84.07L544.54 84.13L544.43 84.44L543.94 84.48L543.98 84.67L544.65 84.9L544.74 85.13L544.13 85.14L543.8 84.69L543.49 84.69L543.39 85.02L543.61 85.24L543.63 85.48L543.21 85.79L542.65 85.81L542.4 85.57L541.77 85.52L541.81 85.94L542.16 86.52L542.12 86.76L541.83 86.71L541.75 86.49L541.59 86.37L540.96 86.06L540.84 85.89L540.21 85.5L540.19 85.38L540.33 85.38L540.8 85.53L541.04 85.52L541.1 85.34L541.05 84.87L540.94 84.81L540.93 84.63L540.79 84.42L540.57 84.26L539.66 84.16L539.47 84.01L539.5 83.9L539.67 83.84L539.71 83.47L539.84 83.39L539.93 83.18L540.04 83.11L540.18 83.12L540.73 83.24L540.98 82.92Z"/></svg>