<svg xmlns="http://www.w3.org/2000/svg" viewBox="0 0 1000 439.1" data-c="HR"><path data-r="01" data-n="Zagrebacka" data-pt="Zagreb" data-es="Zagreb" data-en="Zagreb" d="M537.5 81.23L537.69 81.24L537.8 81.17L537.76 80.77L538.13 80.74L538.34 80.8L538.41 80.89L538.13 80.95L538.12 81.06L538.02 81.09L538.02 81.17L538.22 81.27L538.15 81.38L538.2 81.44L538.16 81.54L538.09 81.5L538.06 81.58L538.45 81.86L538.54 81.56L538.92 81.28L539.05 81.33L539.13 81.15L538.87 80.77L538.96 80.73L538.93 80.67L539.03 80.67L538.99 80.49L539.13 80.49L539.23 80.64L539.39 80.6L539.58 80.66L539.68 80.81L539.78 80.75L540.01 80.91L540.19 80.9L540.25 81.08L540.21 81.22L540.14 81.24L540.08 81.17L540.03 81.37L539.88 81.34L539.8 81.41L539.64 81.23L539.51 81.27L539.51 81.47L539.37 81.47L539.32 81.53L539.36 81.8L539.32 81.89L539.22 81.94L539 81.82L538.87 81.93L538.78 81.93L538.94 82.23L538.8 82.32L538.72 82.28L538.63 82.33L538.53 82.32L538.34 82.09L538.15 82.18L538.03 82.06L538.04 81.94L537.71 81.85L537.58 81.91L537.25 81.63L537.06 81.71L536.9 81.68L536.8 81.58L536.84 81.52L537.22 81.38L537.24 81.27L537.5 81.23Z"/><path data-r="02" data-n="Krapinsko-Zagorska" data-pt="Krapina-Zagorje" data-es="Krapina-Zagorje" data-en="Krapina-Zagorje" d="M537.98 79.91L538.17 79.87L538.2 79.96L538.38 80.08L538.56 80.11L538.86 80.1L538.94 80.02L539.06 80.08L539.13 80.49L538.97 80.51L539.03 80.67L538.93 80.67L538.94 80.75L538.48 80.96L538.34 80.8L538.13 80.74L537.76 80.77L537.8 80.57L537.56 80.4L537.51 80.25L537.61 80.03L537.87 80.02L537.98 79.91Z"/><path data-r="03" data-n="Sisacko-Moslavacka" data-pt="Sisak-Moslavina" data-es="Sisak-Moslavina" data-en="Sisak-Moslavina" d="M541.05 83.07L540.98 82.92L540.77 83.13L540.76 83.22L540.67 83.25L540.04 83.11L539.93 83.18L539.84 83.39L539.71 83.47L539.64 83.79L539.58 83.81L539.33 83.71L539.09 83.51L538.78 83.12L538.28 83.19L537.89 83.15L537.86 83.06L537.95 82.7L537.87 82.5L538.26 82.56L538.31 82.35L538.22 82.17L538.31 82.09L538.49 82.21L538.53 82.32L538.72 82.28L538.8 82.32L538.94 82.23L538.76 81.95L539 81.82L539.22 81.94L539.32 81.89L539.36 81.8L539.32 81.53L539.37 81.47L539.51 81.47L539.51 81.27L539.64 81.23L539.84 81.45L539.84 81.57L540.55 81.89L540.77 82.16L540.68 82.21L540.72 82.28L540.93 82.32L541.17 82.5L541.27 82.48L541.25 82.6L541.49 82.74L541.58 82.72L541.64 82.89L541.53 82.92L541.38 83.09L541.5 83.28L541.26 83.09L541.2 83.13L541.19 83.04L541.17 83.08L541.07 83.02L541.1 83.06L541.05 83.07Z"/><path data-r="04" data-n="Karlovacka" data-pt="Karlovac" data-es="Karlovac" data-en="Karlovac" d="M538.28 83.19L538.21 83.68L538.26 83.83L538.19 84.02L538.01 83.97L537.89 84.03L537.75 83.97L537.7 84.04L537.8 84.19L537.66 84.07L537.55 84.06L537.3 83.73L536.83 83.41L536.67 83.48L536.38 83.42L536.28 83.34L536.25 82.94L536.38 82.78L536.61 82.89L536.83 82.63L536.82 82.44L537.06 82.39L537.14 82.3L536.97 82.17L536.88 81.92L537.13 81.8L537.06 81.71L537.25 81.63L537.58 81.91L537.71 81.85L538.04 81.94L538.03 82.06L538.15 82.18L538.22 82.17L538.31 82.35L538.26 82.56L537.87 82.5L537.95 82.71L537.86 83.08L537.89 83.15L538.28 83.19Z"/><path data-r="05" data-n="Varaždinska" data-pt="Varaždin" data-es="Varaždin" data-en="Varaždin" d="M538.64 79.52L538.77 79.45L538.93 79.54L539.1 79.5L539.2 79.53L539.31 79.69L539.61 79.74L540.18 79.71L540.32 79.83L540.15 80.03L540 80.02L539.66 80.24L539.34 80.3L539.39 80.6L539.23 80.64L539.13 80.49L539.06 80.08L538.94 80.02L538.86 80.1L538.56 80.11L538.38 80.08L538.2 79.96L538.17 79.87L538.57 79.7L538.57 79.51L538.64 79.52Z"/><path data-r="06" data-n="Koprivničko-Križevačka" data-pt="Koprivnica-Križevci" data-es="Koprivnica-Križevci" data-en="Koprivnica-Križevci" d="M540.56 79.71L540.99 80.18L541.19 80.3L541.41 80.32L541.61 80.64L541.71 80.69L541.67 80.75L541.42 80.77L541.29 80.96L541.32 81.08L541.09 80.88L540.96 80.91L540.94 80.8L540.73 80.68L540.73 80.58L540.58 80.43L540.46 80.54L540.41 80.5L540.31 80.54L540.22 80.74L540.23 80.92L540.01 80.91L539.78 80.75L539.68 80.81L539.6 80.67L539.39 80.6L539.34 80.3L539.66 80.24L539.91 80.05L540.15 80.03L540.32 79.83L540.24 79.73L540.4 79.81L540.5 79.55L540.56 79.71Z"/><path data-r="07" data-n="Bjelovarsko-bilogorska" data-pt="Bjelovar-Bilogora" data-es="Bjelovar-Bilogora" data-en="Bjelovar-Bilogora" d="M540.55 80.43L540.73 80.58L540.73 80.68L540.94 80.8L540.96 80.91L541.09 80.88L541.67 81.29L541.8 81.46L541.87 81.44L541.96 81.61L542.09 81.56L542.23 81.65L542.09 81.95L542.15 82.06L542.1 82.2L541.63 82.22L541.52 82.15L541.13 82.23L540.95 82.09L540.93 82.32L540.87 82.34L540.7 82.26L540.68 82.21L540.77 82.16L540.55 81.89L539.82 81.55L539.8 81.41L539.86 81.35L540.03 81.37L540.08 81.17L540.14 81.24L540.24 81.18L540.26 80.62L540.39 80.5L540.46 80.54L540.55 80.43Z"/><path data-r="08" data-n="Primorsko-Goranska" data-pt="Litoral-Serrano" data-es="Primorje-Gorski" data-en="Primorje-Gorski" d="M536.73 82.47L536.82 82.44L536.85 82.5L536.73 82.79L536.6 82.89L536.38 82.78L536.25 82.94L536.27 83.31L536.43 83.57L536.21 83.56L536.09 83.7L535.98 83.48L535.51 83.19L535.3 82.99L535.31 82.91L535.18 82.83L535.24 82.88L535.19 82.92L534.68 82.7L534.55 82.9L534.5 83.32L534.44 83.3L534.36 82.54L534.19 82.45L534.13 82.33L534.37 82.25L534.64 82.32L534.84 82.26L534.97 82.16L535.02 81.94L535.2 81.72L535.27 81.92L535.45 82.04L535.45 82.13L535.73 82.26L535.78 82.35L535.98 82.34L536.07 82.19L536.73 82.47ZM535.15 85.18L535.37 85.38L535.39 85.44L535.34 85.44L535.14 85.27L535.21 85.27L535.1 85.15L534.95 85.16L534.99 85.06L534.85 84.7L535.01 84.8L535.04 85.04L535.15 85.18ZM535.82 84.51L535.86 84.57L535.72 84.55L535.61 84.44L535.78 84.44L535.67 84.29L535.8 84.27L535.81 84.38L536.1 84.64L536.1 84.75L535.82 84.51ZM535.3 84.88L535.35 84.96L535.31 85.01L535.21 85.01L535.09 84.89L534.99 84.59L534.92 84.56L534.89 84.39L534.7 84.1L534.71 83.99L534.93 84.1L534.92 83.94L534.97 83.95L534.61 83.45L534.68 83.27L534.79 83.28L534.9 83.69L535.12 83.9L535.11 84.44L535.18 84.73L535.3 84.88ZM535.73 83.99L535.48 83.86L535.46 83.67L535.46 83.73L535.2 83.71L534.97 83.54L535.07 83.42L535.22 83.39L535.23 83.03L535.35 83.06L535.43 83.26L535.37 83.29L535.54 83.3L535.56 83.54L535.74 83.58L535.75 83.67L535.95 83.88L535.82 83.88L535.81 83.97L535.73 83.99ZM534.64 84.88L534.73 84.83L534.67 84.89L534.7 85.04L534.62 84.99L534.64 84.88Z"/><path data-r="09" data-n="Licko-Senjska" data-pt="Lika-Senj" data-es="Lika-Senj" data-en="Lika-Senj" d="M537.27 85.82L536.71 85.27L536.52 85.17L536.18 84.68L536.14 84.3L536.21 83.94L536.1 83.63L536.21 83.56L536.42 83.58L536.38 83.42L536.75 83.48L536.83 83.41L537.3 83.73L537.55 84.06L537.66 84.07L537.8 84.19L537.71 84.34L537.91 84.45L537.61 84.64L537.76 84.79L537.87 85.13L538.07 85.3L538.11 85.4L537.97 85.52L538.09 85.64L538.07 85.74L537.9 85.92L537.78 85.81L537.54 85.78L537.38 85.66L537.27 85.82ZM536.21 85.2L535.9 84.89L535.84 84.75L536.12 85.07L536.22 85.14L536.2 85.04L536.26 85.04L536.61 85.3L536.71 85.44L536.45 85.27L536.29 85.24L536.43 85.31L536.65 85.58L536.78 85.66L536.63 85.46L537.04 85.76L537.18 85.89L536.96 85.83L537.05 85.86L537.11 85.98L536.94 85.92L536.88 85.92L536.99 86.02L536.88 85.98L536.77 85.79L536.84 85.74L536.67 85.72L536.59 85.61L536.27 85.42L536.32 85.37L536.21 85.2Z"/><path data-r="10" data-n="Viroviticko-Podravska" data-pt="Virovitica-Podravina" data-es="Virovitica-Podravina" data-en="Virovitica-Podravina" d="M541.69 80.74L541.94 80.86L542.19 80.82L542.39 80.88L542.53 81.02L542.57 81.16L542.95 81.26L543.08 81.39L543.19 81.33L543.3 81.53L543.42 81.57L543.67 81.83L543.24 82.33L543.04 82.33L542.32 82L542.29 82.07L542.11 82.01L542.23 81.65L542.09 81.56L541.96 81.61L541.87 81.44L541.8 81.46L541.67 81.29L541.3 81.03L541.42 80.77L541.69 80.74Z"/><path data-r="11" data-n="Požeško-slavonska županija" d="M543.23 82.33L543.67 81.83L543.98 81.94L544.03 82.01L543.96 82.06L543.97 82.13L544.05 82.2L544.41 82.26L544.47 82.17L544.59 82.32L544.26 82.36L543.93 82.52L543.74 82.71L543.84 82.83L543.78 82.96L543.34 82.91L543.25 83.09L543.08 83.12L543.07 83.21L542.99 83.23L542.9 83.2L542.87 83L542.56 82.94L542.08 82.59L541.87 82.65L541.71 82.62L541.49 82.74L541.25 82.6L541.27 82.48L541.17 82.5L540.93 82.32L540.92 82.18L540.95 82.09L541.13 82.23L541.52 82.15L541.63 82.22L542.08 82.21L542.15 82.06L542.11 82.01L542.29 82.07L542.32 82L543.04 82.33L543.23 82.33Z"/><path data-r="12" data-n="Brodsko-Posavska" data-pt="Brod-Posavina" data-es="Brod-Posavina" data-en="Brod-Posavina" d="M541.65 83.34L541.49 83.28L541.38 83.14L541.53 82.92L541.64 82.89L541.58 82.72L541.71 82.62L541.87 82.65L542.08 82.59L542.56 82.94L542.87 83L542.9 83.2L542.99 83.23L543.07 83.21L543.08 83.12L543.25 83.09L543.38 82.9L543.78 82.96L544.14 83.11L544.38 83.04L544.78 83.15L544.91 83.2L544.84 83.37L544.96 83.64L544.2 83.32L544.11 83.36L544.1 83.47L544.01 83.5L543.63 83.34L543.43 83.56L543.27 83.61L542.85 83.29L542.6 83.43L542.38 83.45L542.4 83.36L542.29 83.39L542.27 83.3L542.13 83.37L541.84 83.21L541.79 83.32L541.65 83.34Z"/><path data-r="13" data-n="Zadarska" data-pt="Zadar" data-es="Zadar" data-en="Zadar" d="M538.19 84.02L538.31 84.3L538.18 84.43L538.22 84.54L538.43 84.77L538.62 84.68L538.84 84.95L538.99 84.99L539.04 85.11L538.96 85.26L539.23 85.32L539.37 85.65L539.33 85.78L539.49 85.83L539.47 86.08L539.56 86.31L539.92 86.76L540.09 86.8L540.16 86.93L540.39 87.08L540.29 87.07L540.09 87.23L539.92 87.16L539.58 87.23L539.5 87.18L539.43 86.86L539.32 86.94L539.17 86.93L539.11 87.13L538.9 87.26L538.58 87.15L538.59 87.26L538.49 87.39L538.35 87.32L538.23 87.41L538.08 87.3L538.02 87.37L537.78 87.2L536.95 86.35L536.96 86.23L536.85 86.13L536.92 86.08L537.02 86.18L537.07 86.16L537.06 86.02L537.31 86.18L537.26 86.07L537.31 86.02L537.2 85.92L537.58 86.11L537.86 86.15L537.27 85.82L537.38 85.66L537.54 85.78L537.76 85.8L537.9 85.92L538.07 85.74L538.09 85.64L537.97 85.52L538.11 85.4L538.07 85.3L537.87 85.13L537.76 84.79L537.61 84.6L537.73 84.59L537.91 84.45L537.71 84.34L537.8 84.19L537.72 84L537.91 84.03L538.01 83.97L538.19 84.02ZM537.4 87.08L537.29 86.94L537.6 87.07L537.77 87.33L537.55 87.23L537.4 87.08ZM537.27 86.92L536.92 86.68L536.76 86.46L537.18 86.76L537.27 86.92ZM536.23 86.5L536.17 86.44L536.23 86.5ZM537.02 87.13L537.21 87.29L537 87.22L537.16 87.38L536.97 87.25L536.64 86.81L536.24 86.42L536.51 86.65L536.64 86.68L536.74 86.89L537.02 87.13ZM535.99 86.05L536.07 86.13L535.97 86.14L535.94 86.08L535.99 86.05ZM535.62 85.89L535.75 85.99L535.62 85.89ZM536.06 85.77L536.08 85.88L535.96 85.82L535.98 85.65L536.07 85.69L536.06 85.77Z"/><path data-r="14" data-n="Osjecko-Baranjska" data-pt="Osijek-Barânia" data-es="Osijek-Baranja" data-en="Osijek-Baranja" d="M545.37 80.97L545.55 80.89L545.57 80.94L545.49 81.01L545.58 81.09L545.46 81.12L545.45 81.25L545.6 81.41L545.66 81.6L545.8 81.71L545.68 81.87L545.67 82.01L545.78 82.12L545.95 82.03L546.18 82.2L546.12 82.27L545.95 82.25L545.92 82.44L545.82 82.46L545.59 82.3L545.43 82.37L545.46 82.5L545.27 82.5L545.13 82.58L545.1 82.8L544.81 82.91L544.82 83.03L544.97 83.08L544.95 83.21L544.47 83.05L544.09 83.1L543.78 82.96L543.84 82.83L543.74 82.71L543.93 82.52L544.26 82.36L544.59 82.31L544.47 82.17L544.41 82.26L544.05 82.2L543.96 82.07L544.02 81.98L543.5 81.71L543.42 81.57L543.3 81.53L543.19 81.33L543.62 81.39L543.93 81.35L544.41 81.49L544.54 81.35L544.7 81.33L544.79 81.25L544.96 80.97L545.26 81.05L545.32 80.95L545.37 80.97Z"/><path data-r="15" data-n="Šibensko-Kninska" data-pt="Šibenik-Knin" data-es="Šibenik-Knin" data-en="Šibenik-Knin" d="M539.26 88.55L539.13 88.55L539.19 88.42L539.12 88.44L539.01 88.33L539 88.16L539.11 88.12L538.96 88.09L539.07 88.08L539.02 88.03L539.06 87.96L539.01 88L538.65 87.75L538.44 87.73L538.21 87.53L538.36 87.55L538.02 87.37L538.08 87.3L538.23 87.41L538.35 87.32L538.49 87.39L538.59 87.26L538.58 87.15L538.9 87.26L539.11 87.13L539.17 86.93L539.32 86.94L539.43 86.86L539.53 87.21L539.95 87.18L539.96 87.34L540.08 87.4L540.19 87.57L540.01 87.69L540.01 87.9L539.77 88.02L539.59 87.97L539.42 88.19L539.33 88.22L539.33 88.32L539.42 88.42L539.32 88.47L539.35 88.53L539.26 88.55ZM538.4 88.09L538.56 88.16L538.39 88.13L538.21 88.01L538.33 88.01L538.4 88.09ZM537.32 87.4L537.68 87.7L537.29 87.45L537.24 87.37L537.32 87.4Z"/><path data-r="16" data-n="Vukovarsko-Srijemska" data-pt="Vukovar-Sírmia" data-es="Vukovar-Srijem" data-en="Vukovar-Syrmia" d="M545.22 83.61L545.13 83.5L544.94 83.53L544.87 83.45L544.84 83.3L544.98 83.14L544.95 83.06L544.82 83.03L544.81 82.91L545.09 82.81L545.13 82.58L545.27 82.5L545.46 82.5L545.43 82.37L545.59 82.3L545.82 82.46L545.99 82.45L546.02 82.55L545.91 82.58L545.92 82.64L546.18 82.74L546.25 82.87L546.64 83.05L546.94 83.09L547.02 83.17L546.99 83.28L546.71 83.25L546.59 83.3L546.33 83.19L546.38 83.35L546.16 83.38L546.27 83.54L546.31 83.88L546.43 83.96L546.29 84.11L546.16 84.04L546.1 84.08L546.15 84.24L545.87 84.25L545.69 84.16L545.56 83.99L545.63 83.92L545.58 83.79L545.42 83.73L545.3 83.54L545.22 83.61Z"/><path data-r="17" data-n="Splitsko-Dalmatinska" data-pt="Split-Dalmácia" data-es="Split-Dalmacia" data-en="Split-Dalmatia" d="M540.39 87.08L540.8 87.48L540.9 87.7L541.74 88.41L542.03 88.6L542.36 88.68L542.38 89.03L542.45 89.19L542.75 89.47L542.89 89.69L542.63 89.67L542.78 89.86L542.7 89.91L542.57 89.76L542.06 89.5L541.44 88.88L540.78 88.73L540.51 88.53L540.19 88.53L540.34 88.47L540.38 88.44L540.34 88.42L540.04 88.4L539.81 88.48L539.51 88.49L539.65 88.6L539.51 88.63L539.26 88.55L539.35 88.53L539.32 88.47L539.42 88.42L539.33 88.32L539.33 88.22L539.42 88.19L539.57 87.98L539.77 88.02L540.03 87.88L540.01 87.69L540.2 87.53L539.96 87.34L539.97 87.21L540.09 87.23L540.25 87.09L540.39 87.08ZM539.94 89.94L539.97 89.97L539.87 90.06L539.58 90.13L539.51 90.11L539.57 90.03L539.47 89.96L539.66 89.88L539.94 89.94ZM541.03 89.76L540.22 89.54L540.52 89.47L540.75 89.56L540.58 89.43L540.93 89.47L541.11 89.64L541.44 89.63L542.26 89.76L541.03 89.76ZM540.52 89.26L540.27 89.1L540.32 89.12L540.38 89.04L540.3 88.9L540.95 88.96L541.31 89.06L541.47 89.17L541.29 89.31L540.52 89.26ZM540.23 89.06L540.13 89.08L539.77 88.93L539.75 88.86L539.99 88.87L540 88.93L540.07 88.92L540.23 89.06ZM539.99 88.54L540.14 88.62L539.75 88.6L539.87 88.52L539.99 88.54Z"/><path data-r="18" data-n="Istarska" data-pt="Ístria" data-es="Istria" data-en="Istria" d="M532.99 82.37L533.27 82.36L533.59 82.48L533.78 82.36L533.75 82.23L533.81 82.2L534.13 82.33L534.19 82.45L534.36 82.54L534.41 83.27L534.5 83.32L534.44 83.41L534.37 83.39L534.41 83.48L534.32 83.56L534.34 83.64L534.3 83.62L534.36 83.82L534.14 83.97L534.17 83.85L534.05 83.69L534.07 83.81L534.15 83.86L534.06 83.95L534.06 84.1L533.92 84.12L533.98 84.18L533.94 84.36L534.01 84.4L533.83 84.4L533.74 84.33L533.79 84.53L533.76 84.4L533.48 84.2L533.56 84.23L533.61 84.16L533.49 84.14L533.52 84.08L533.43 83.92L533.03 83.58L533.06 83.52L533 83.44L533.27 83.39L532.96 83.38L532.9 83.17L532.93 83.05L532.87 82.98L532.94 82.93L532.86 82.85L532.94 82.8L532.82 82.79L532.77 82.72L532.8 82.66L532.64 82.25L532.66 82.2L532.99 82.37Z"/><path data-r="19" data-n="Dubrovacko-Neretvanska" data-pt="Dubrovnik-Neretva" data-es="Dubrovnik-Neretva" data-en="Dubrovnik-Neretva" d="M545.5 91.58L545.54 91.85L545.69 92.04L545.01 91.58L544.93 91.39L544.54 91.27L544.57 91.23L544.48 91.12L544.38 91.13L544.12 90.96L544.06 90.91L544.08 90.84L543.86 90.77L543.8 90.82L543.65 90.72L543.77 90.89L543.73 90.9L543.68 90.81L542.94 90.57L542.88 90.45L542.71 90.42L542.36 90.22L541.89 90.16L541.81 90L542 90.09L542.41 90.09L542.88 90.29L542.98 90.42L543.1 90.46L543.16 90.42L543.63 90.67L543.7 90.68L543.59 90.59L543.6 90.53L543.46 90.52L543.52 90.44L543.85 90.46L543.99 90.75L544.35 91L544.95 91.36L545.5 91.58ZM542.89 89.69L543.25 89.9L543.46 90.28L543.15 90.33L542.99 90.16L543.05 90.07L542.89 90.11L542.95 90.07L542.7 89.91L542.79 89.83L542.63 89.71L542.65 89.66L542.8 89.72L542.89 89.69ZM541.54 90.86L541.73 90.9L541.71 91L541.46 91.01L541.42 90.89L541.54 90.86ZM543.52 90.99L543.76 91.15L542.84 90.9L542.81 90.94L542.68 90.84L542.85 90.8L542.8 90.84L543.52 90.99ZM542.16 90.26L542.32 90.44L541.78 90.4L541.49 90.49L540.95 90.38L541.11 90.26L540.92 90.22L541.14 90.2L541.4 90.29L541.91 90.22L542.16 90.26Z"/><path data-r="20" data-n="Medimurska" data-pt="Međimurje" data-es="Međimurje" data-en="Međimurje" d="M539.63 79.12L539.79 79.22L539.84 79.18L539.99 79.24L540.24 79.49L540.27 79.45L540.44 79.49L540.5 79.55L540.41 79.8L540.18 79.71L539.61 79.74L539.31 79.69L539.2 79.53L539.1 79.51L538.96 79.19L539.02 79.08L539.24 78.98L539.63 79.12Z"/><path data-r="21" data-n="Grad Zagreb" data-pt="Zagreb" data-es="Zagreb" data-en="Zagreb" d="M538.48 80.96L538.87 80.77L539.13 81.15L539.05 81.33L538.92 81.28L538.54 81.56L538.45 81.86L538.08 81.63L538.09 81.5L538.16 81.54L538.2 81.44L538.15 81.38L538.22 81.27L538.02 81.17L538.02 81.09L538.12 81.06L538.15 80.94L538.41 80.89L538.48 80.96Z"/></svg>