<svg xmlns="http://www.w3.org/2000/svg" viewBox="0 0 1000 439.1" data-c="PG"><path data-r="CPK" data-n="Chimbu" data-pt="Simbu" data-es="Simbu" d="M909.57 267.81L909.72 267.87L909.9 268.14L909.79 268.93L910.02 269.2L910.04 269.59L909.96 269.86L909.69 270.17L909.4 270.18L909.24 270.27L909.17 270.37L909.17 270.57L909.39 270.72L909.71 271.19L910.02 271.25L910.07 271.43L909.9 271.94L909.78 271.83L909.58 271.81L909.02 271.58L908.9 271.42L908.73 271.48L908.57 271.48L908.46 271.39L908.3 271.42L908.19 271.22L907.96 271.13L907.96 270.98L907.88 270.85L907.63 270.75L907.67 270.41L907.91 270.28L907.95 270.01L908.08 270.14L908.12 270.11L908.24 269.82L908.44 269.57L908.61 269.08L908.53 268.89L908.56 268.7L908.64 268.57L908.85 268.43L908.89 267.79L909.36 267.88L909.57 267.81Z"/><path data-r="CPM" data-n="Central" d="M920.41 285.06L920.18 285.1L920.12 285.06L920 285.09L920.01 285.17L919.92 285.17L919.89 285.07L919.75 285.09L919.79 285.04L919.7 285L919.7 284.9L919.58 284.83L919.44 284.96L918.88 284.68L918.59 284.74L918.43 284.84L918.18 284.68L917.86 284.68L917.83 284.49L917.97 284.39L917.92 284.3L917.87 284.38L917.79 284.34L917.78 284.19L917.59 284.5L917.31 284.44L917.24 284.51L916.91 284.55L916.75 284.45L916.67 284.27L916.59 284.31L916.49 284.19L916.34 284.16L916.3 284.06L916.12 284.27L915.88 284.26L915.74 284.42L915.61 284.12L915.44 284.16L915.53 284.05L915.51 283.95L915.42 284.09L915.27 283.99L915.05 284.16L915.05 283.84L914.85 283.75L914.62 283.33L914.62 282.91L914.32 282.2L914.25 282.19L914.17 281.55L913.95 281.45L913.67 281.58L913.6 281.65L913.65 281.83L913.56 281.75L913.42 281.06L913.25 281.07L913.23 281.02L913.3 280.96L913.26 280.8L913.33 280.6L913.28 280.5L913.56 280.29L913.57 280.11L913.36 280.39L913.25 280.41L913.02 280.22L912.9 280.22L912.55 280.02L912.46 279.59L912.52 279.44L912.65 279.37L912.67 279.25L912.55 279.31L912.54 279.11L912.45 279.11L912.45 278.92L912.29 278.53L912.17 278.43L912.55 275.97L913.24 275.34L913.46 275.6L913.48 276.05L914 276.24L914.16 276.21L914.89 277.3L915.31 277.62L915.53 277.92L915.65 278.34L915.24 279.07L915.18 279.49L915.58 280.23L915.66 280.61L915.84 280.59L915.99 281.04L916.17 281.17L916.34 281.67L916.26 281.97L916.31 282.21L916.5 282.31L916.93 282.87L917.15 282.86L917.76 283.45L917.88 283.38L917.92 283.54L918.08 283.55L918.21 283.64L918.69 283.52L918.74 283.33L918.68 283.06L918.78 282.95L919.05 282.93L919.43 283.07L919.64 283.29L919.67 283.49L919.88 283.56L920.02 283.76L920.5 284.13L920.53 284.31L920.41 285.06Z"/><path data-r="EBR" data-n="East New Britain" data-pt="Nova Bretanha Oriental" data-es="Nueva Bretaña del Este" d="M928.51 264.61L928.62 264.43L928.69 264.12L928.61 263.92L928.66 263.46L928.57 263.14L928.57 262.81L928.33 262.22L928.33 261.81L928.43 261.67L928.92 261.76L928.94 261.83L929.17 261.8L929.32 261.91L929.36 262.16L929.59 262.26L929.69 262.22L929.79 262.05L929.75 261.73L929.9 261.8L930.11 261.78L930.19 261.57L930.26 261.54L930.41 261.9L930.27 261.91L930.22 261.8L930.22 262.18L930.37 262.17L930.47 262.28L930.85 262.26L930.66 262.93L930.75 263.6L930.65 264.01L930.44 264.39L930.15 264.74L929.94 264.81L929.48 264.7L929.42 264.75L929.38 265.37L929.65 265.72L929.8 266.12L929.64 266.51L929.39 266.65L929.24 266.84L928.75 267.08L928.53 266.82L928.39 266.82L928.23 267L928.13 266.85L927.8 266.84L927.75 267.04L927.95 267.34L927.65 267.5L927.39 267.98L927.19 268.07L926.85 268.48L926.83 268.43L926.58 268.56L926.49 268.72L926.24 268.69L925.97 268.82L925.82 268.67L925.74 268.98L925.63 269.11L925.61 268.92L925.27 268.36L925.23 268.2L925.27 267.88L925.58 267.7L925.88 267.68L926.05 267.56L926.36 267.48L926.44 267.1L926.65 267.19L927.09 266.78L927.21 266.54L927.17 266.48L927.01 266.48L927 266.42L927.29 265.71L927.62 265.11L927.96 264.88L928.57 264.84L928.62 264.78L928.51 264.61ZM931.11 261.52L931.16 261.66L931.09 261.8L931 261.77L930.95 261.62L931.08 261.47L931.11 261.52Z"/><path data-r="EHG" data-n="Eastern Highlands" data-es="Tierras Altas Orientales" d="M910.42 268.07L910.5 268.11L910.59 268.36L910.69 268.45L910.85 268.48L911.07 268.29L911.19 268.32L911.29 268.44L911.71 268.47L911.87 268.65L911.99 268.95L912.08 268.9L912.08 269.02L912.49 269.47L912.06 271.18L911.9 271.42L911.91 271.97L911.65 272.31L911.28 273.31L909.9 271.94L910.07 271.43L910.02 271.25L909.71 271.19L909.39 270.72L909.17 270.57L909.17 270.37L909.24 270.27L909.4 270.18L909.66 270.19L910.01 269.76L910.02 269.2L909.79 268.93L909.9 268.14L910.42 268.07Z"/><path data-r="EPW" data-n="Enga" d="M906.8 264.74L906.81 264.86L907.02 265.13L907.29 265.3L907.34 265.64L907.51 265.81L907.35 266.14L906.89 266.44L907.03 267.05L906.9 267.53L906.57 267.79L905.96 268.11L906.03 268.37L905.74 268.32L905.14 268.45L904.77 268.12L904.52 267.77L903.56 267.25L903.31 266.73L903.39 264.88L904.04 265.09L904.56 264.98L906.8 264.74Z"/><path data-r="ESW" data-n="East Sepik" data-es="Sepik Oriental" d="M904.71 258.54L905.06 258.57L905.17 258.65L905.93 258.85L906.16 259.25L906.36 259.38L906.46 259.33L906.49 259.49L906.72 259.56L906.85 259.82L907.07 259.94L907.26 260.25L907.67 260.24L907.55 260.29L907.57 260.34L907.69 260.43L907.77 260.38L907.86 260.5L907.98 260.27L908.08 260.23L908.61 260.29L908.71 260.42L908.72 260.88L908.8 260.99L908.63 262.83L908.24 263.55L907.03 264.68L904.56 264.98L904.22 265.08L903.76 265.04L903.39 264.88L903.24 264.75L902.16 264.69L902.17 263.58L901.9 263.36L899.92 263.34L899.56 263.24L899.5 262.9L899.54 262.27L899.64 261.99L900.71 261.07L900.82 261.05L900.82 261.13L900.95 261.23L900.9 261.36L900.98 261.31L902.77 261.29L902.93 261.24L903.09 260.79L903.27 260.63L903.32 260.49L903.34 260.21L903.27 259.92L903.3 259.31L903.46 258.9L903.77 258.75L904.43 259.15L904.59 259.18L904.66 259.05L904.71 258.54ZM907.5 258.01L907.6 257.91L907.7 258.07L907.64 258.14L907.5 258.01ZM906.12 258.63L905.9 258.52L905.95 258.39L906.15 258.52L906.12 258.63Z"/><path data-r="GPK" data-n="Gulf" data-es="Golfo" d="M912.17 278.43L911.93 277.86L911.9 277.25L911.6 276.97L911.61 276.73L911.55 276.63L911.61 276.53L911.18 276.34L911.01 276.37L910.79 276.24L910.74 276.1L910.8 276.06L910.82 275.88L910.62 275.95L910.65 276.03L910.59 276.06L910.42 276.06L910.31 275.95L909.82 276L909.52 275.69L909.3 275.7L909.16 275.47L909.05 275.59L908.92 275.52L908.87 275.36L908.8 275.51L908.63 275.51L908.53 275.36L908.49 275.42L908.31 275.38L908.22 275.24L908.31 275.09L908.33 274.58L908.2 275.01L908.05 275L907.78 274.55L907.73 274.88L907.59 274.91L907.48 274.72L907.44 274.3L907.34 274.78L907.41 274.89L907.33 274.97L907.1 274.37L907.12 275.02L907.26 275.44L907.18 275.46L907.03 275.15L906.99 275.24L906.89 275.24L906.79 274.73L906.82 275.03L906.74 275.04L906.66 274.81L906.53 274.91L906.6 274.95L906.54 275.17L906.62 275.33L906.43 275.44L906.36 275.34L906.23 275.36L905.47 274.89L905.31 274.35L905.11 274.27L904.99 274.08L904.96 274.13L905.06 274.32L905.24 274.42L905.41 275.15L905.42 275.48L905.6 275.95L905.62 276.11L905.57 276.18L903.35 272.56L903.42 271.79L905.35 271.79L908.46 271.39L908.57 271.48L908.9 271.42L909.02 271.58L909.58 271.81L909.78 271.83L911.28 273.31L911.72 274.09L911.85 274.45L912.7 274.79L913.24 275.34L912.55 275.97L912.17 278.43Z"/><path data-r="MBA" data-n="Milne Bay" d="M920.26 282.25L920.53 282.26L920.69 282.35L921.01 282.27L921.43 282.42L921.78 282.43L921.86 282.59L921.85 282.72L921.24 282.96L921.12 282.94L920.85 283.15L920.9 283.33L921.14 283.69L921.11 283.84L921.22 283.88L921.32 284.02L921.69 284.08L921.84 284.19L922 284.13L922.26 284.47L922.53 284.57L922.69 284.53L922.87 284.61L922.97 284.55L923.09 284.57L923.01 284.68L923.12 284.84L923.57 284.76L923.77 284.62L923.84 284.64L923.15 285.07L922.99 285.09L922.54 284.92L922.35 285.02L922.27 285.17L922.29 285.3L922.67 285.39L923.1 285.66L923.12 285.89L923.05 285.97L922.68 286.14L922.5 286.14L922.3 286.39L922.13 286.39L922.06 286.28L921.86 286.39L921.77 286.35L921.67 286.44L921.6 286.35L921.62 286.22L921.43 286.31L921.39 286.21L921.17 286.1L921.23 286.06L921.2 285.92L921.11 286.03L921.05 285.97L921.08 285.89L921.01 285.95L920.89 285.84L920.88 285.92L920.77 285.87L920.9 285.78L920.91 285.71L920.85 285.74L920.91 285.67L921.18 285.73L921.47 285.53L921.13 285.4L921 285.64L920.94 285.33L920.86 285.23L920.61 285.07L920.41 285.06L920.53 284.31L920.5 284.13L920.02 283.76L919.88 283.56L919.67 283.49L919.64 283.29L919.43 283.07L919.05 282.93L918.72 282.98L918.77 282.75L918.92 282.61L919.18 282.67L920.26 282.25ZM931.02 289.78L931.03 289.88L930.92 289.85L930.76 289.93L930.55 289.88L930.4 289.97L930.47 289.85L930.25 289.8L930.23 289.65L930.11 289.75L930.02 289.67L929.97 289.71L929.96 289.57L930.04 289.47L930 289.42L929.95 289.47L929.92 289.41L929.87 289.43L929.74 289.54L929.87 289.34L929.76 289.31L929.7 289.17L929.64 289.18L929.67 289.04L929.58 288.93L929.65 288.77L929.77 288.9L929.91 288.9L929.91 288.96L930.49 289.4L930.88 289.54L931.02 289.78ZM932.65 288.88L932.68 289.03L932.56 289.16L932.44 289.06L932.23 289.14L932.22 289.05L932.18 289.15L932.07 289.19L931.96 289.16L931.85 289.03L931.95 288.95L931.92 288.87L932.25 288.96L932.24 288.89L932.18 288.91L932.14 288.74L932.49 288.74L932.65 288.88ZM929.62 288.62L929.67 288.56L929.44 288.32L929.5 288.25L929.84 288.48L929.77 288.59L929.62 288.62ZM929.01 286.18L929.15 286.26L929.16 286.34L928.81 286.47L928.36 286.29L928.26 286.15L928.54 286.19L928.64 286.29L928.95 286.14L929.01 286.18ZM924.16 286.08L924.07 286.16L924.12 286.21L924.04 286.32L923.96 286.29L923.93 286.19L923.76 286.18L923.69 286.36L923.68 286.2L923.81 286.03L924.02 286.02L924.08 286.08L924.13 286.03L924.16 286.08ZM923.65 285.82L923.7 285.92L923.62 286.24L923.35 286.21L923.32 286.05L923.56 286.15L923.41 285.83L923.49 285.87L923.65 285.82ZM924.86 283.62L925.08 283.49L925.18 283.52L925.2 283.67L924.9 284.31L924.86 284.55L924.69 284.34L924.15 284.19L924.18 283.92L924.32 283.76L924.21 283.62L924.2 283.72L924.08 283.78L924.02 283.22L923.79 282.92L923.86 282.66L924.01 282.84L924.03 283.01L924.51 283.54L924.54 283.62L924.48 283.59L924.45 283.73L924.57 283.89L924.72 283.93L924.73 283.77L924.86 283.62ZM923.99 282.47L923.99 282.54L923.83 282.47L923.58 282.5L923.3 282.36L922.97 282.39L923.25 282.07L923.26 281.99L923.12 281.85L923.08 281.59L923.08 281.48L923.19 281.32L923.34 281.28L923.58 281.43L923.76 281.66L923.97 281.59L924.02 281.51L924.12 281.61L924.2 281.89L924.31 281.96L924.21 282.18L924.3 282.25L924.36 282.47L924.07 282.71L924.14 282.51L923.99 282.47ZM922.94 281.41L922.96 281.47L922.79 281.79L922.86 281.8L922.83 281.9L922.77 281.97L922.53 281.9L922.54 281.74L922.35 281.65L922.21 281.37L922.37 280.94L922.6 280.78L922.8 280.92L922.89 281.07L922.94 281.41ZM930.46 280.54L930.5 280.57L930.41 280.73L930.3 280.66L930.25 280.73L930.34 280.87L930.32 280.97L930.26 280.87L929.88 280.97L929.73 280.69L929.67 280.78L929.72 280.92L929.66 280.99L929.64 280.88L929.47 280.78L929.45 280.69L929.48 280.64L929.59 280.71L929.64 280.55L929.39 280.26L929.31 280.3L929.14 280.15L929.04 280.17L929.14 280.06L929.03 279.87L928.95 279.94L928.88 280.32L928.84 279.97L929.05 279.79L929.2 279.99L929.97 280.02L930.09 280.23L930.34 280.32L930.34 280.46L930.46 280.54ZM925.37 279.13L925.42 279.36L925.34 279.13L925.2 278.97L925.5 278.42L925.42 278.31L925.2 278.25L925.19 278.18L925.35 277.89L925.61 277.8L925.5 278.16L925.57 278.29L925.37 279.13ZM924.63 282.42L924.59 282.54L924.47 282.25L924.58 282.2L924.65 282.24L924.63 282.42Z"/><path data-r="MPL" data-n="Morobe" d="M914.51 267.91L914.56 268L914.73 267.95L914.9 268.01L914.95 268.2L915.17 268.38L915.29 268.33L915.37 268.5L915.42 268.45L915.7 268.49L915.87 268.35L915.96 268.4L916.03 268.35L916.36 268.5L916.75 269.02L916.98 269.65L917.24 269.89L917.3 270.42L917.24 270.82L917.18 270.88L917.19 270.95L917.23 270.93L917.18 271.24L916.94 271.34L916.44 271.38L916.34 271.48L915.98 271.4L915.26 271.43L915.17 271.32L914.99 271.32L914.82 271.43L914.64 271.45L914.54 271.79L914.52 272.15L914.7 272.54L914.84 272.47L914.76 272.96L914.95 273.22L914.9 273.64L915 274.08L914.97 274.17L915.07 274.26L915.16 274.19L915.17 274.26L915.41 274.37L915.44 274.5L915.56 274.53L915.6 274.66L915.74 274.75L915.76 274.99L915.96 275.09L915.98 275.51L916.12 275.49L916.08 275.33L916.2 275.49L916.23 275.91L916.36 275.99L916.68 275.97L916.94 276.23L914 276.24L913.85 276.15L913.64 276.14L913.46 276.02L913.44 275.55L912.7 274.79L911.85 274.45L911.72 274.09L911.28 273.31L911.65 272.31L911.91 271.97L911.9 271.42L912.06 271.18L912.48 269.56L912.48 269.41L912.08 269.02L912.08 268.9L911.99 268.95L911.84 268.6L913.56 268.61L914.51 267.91ZM918.13 267.11L918.19 267.21L918.14 267.65L918.03 267.94L917.99 267.91L917.98 268.01L917.88 268.07L917.86 267.83L917.6 267.71L917.34 267.14L917.38 266.74L917.53 266.63L917.6 266.66L917.72 266.84L917.94 266.93L918.13 267.11ZM918.35 266.24L918.47 266.41L918.47 266.51L918.38 266.58L918.3 266.55L918.27 266.44L918.35 266.24ZM916.99 265.9L917.09 266.03L916.95 266.19L916.85 266.02L916.99 265.9Z"/><path data-r="MPM" data-n="Madang" d="M908.8 260.98L909.21 261.1L909.6 261.4L909.56 261.62L909.76 261.72L909.9 261.89L909.9 262.05L910.11 262.36L910.4 262.49L910.76 262.43L910.86 262.49L911.31 263.23L911.41 263.28L911.73 263.93L911.99 264.14L912.05 264.28L911.94 264.69L911.99 265.03L911.88 265.65L911.74 265.91L911.65 266.29L911.71 266.62L912.03 266.64L912.08 266.76L912.1 266.66L912.31 266.58L912.5 266.74L912.83 266.82L912.85 266.9L913.09 266.95L913.16 267.03L913.32 267L913.46 267.11L913.65 267.09L914.15 267.66L914.51 267.84L914.5 267.92L913.56 268.61L911.84 268.6L911.71 268.47L911.29 268.44L911.19 268.32L911.07 268.29L910.79 268.48L910.59 268.36L910.46 268.08L909.9 268.14L909.72 267.87L909.57 267.81L909.39 267.41L909.21 267.19L909.13 266.94L908.84 266.73L908.67 266.42L908.4 266.25L908.22 265.95L907.78 265.73L907.6 265.85L907.51 265.81L907.34 265.64L907.29 265.3L907.02 265.13L906.81 264.86L906.8 264.74L907.03 264.68L908.24 263.55L908.63 262.83L908.8 260.98ZM915.87 265.84L915.94 266.16L915.86 266.42L915.58 266.5L915.29 266.08L915.34 265.74L915.68 265.53L915.87 265.76L915.87 265.84ZM913.16 264.14L913.2 264.03L913.29 264L913.34 264.13L913.27 264.18L913.28 264.25L913.16 264.14ZM912.66 263.04L912.8 263.29L912.75 263.67L912.59 263.84L912.44 263.9L912.28 263.68L912.3 263.47L912.55 263.05L912.66 263.04ZM910.19 261.18L910.27 261.25L910.26 261.39L910.21 261.48L910.1 261.49L910.04 261.41L910.04 261.22L910.19 261.18Z"/><path data-r="MRL" data-n="Manus" d="M918.31 254.29L918.46 254.47L918.39 254.62L918.26 254.7L918.1 254.7L918.04 254.57L918.19 254.57L918.21 254.39L918.31 254.29ZM917.23 253.32L917.21 253.61L916.93 253.63L916.98 253.55L916.92 253.55L916.86 253.68L916.82 253.62L916.76 253.84L916.56 254.09L916.35 254L916.17 254.09L916.1 254.1L916.12 254.05L915.85 254.12L915.48 254L915.42 254.03L915.28 253.85L915.13 253.82L915.12 253.91L915.21 254L915.16 254.08L915.01 254.09L914.98 254.03L914.88 254.07L914.76 254.25L914.65 254.1L914.62 253.95L914.67 253.84L914.9 253.79L914.81 253.36L914.94 253.42L915.02 253.24L915.34 253.32L915.57 253.18L915.76 253.24L916.32 253.24L916.42 253.4L916.52 253.3L916.55 253.37L917.17 253.55L917.19 253.42L917.08 253.23L917.23 253.32Z"/><path data-r="NCD" data-n="National Capital District" data-pt="Port Moresby" data-es="Puerto Moresby" data-en="Port Moresby" d="M914.19 281.98L914.09 281.93L914.1 282.03L913.95 282L913.82 281.89L913.8 281.67L913.65 281.64L913.72 281.72L913.68 281.83L913.61 281.63L913.95 281.45L914.17 281.55L914.19 281.98Z"/><path data-r="NIK" data-n="New Ireland" data-pt="Nova Irlanda" data-es="Nueva Irlanda" d="M933.27 258.99L933.39 258.88L933.45 259.09L933.27 258.99ZM933.6 258.6L933.71 258.63L933.71 258.78L933.68 258.71L933.5 258.73L933.6 258.6ZM931.81 257.63L931.87 257.72L931.77 258.05L931.47 257.56L931.61 257.34L931.72 257.33L931.82 257.37L931.81 257.63ZM927.15 257.03L927.24 257.08L927.14 257.13L927.1 257.06L926.77 257.04L926.52 257.11L926.85 256.82L927.15 257.03ZM930.21 256.87L930.22 257.03L930.14 257.17L930.07 257.18L929.98 256.98L929.98 256.8L929.9 256.72L929.94 256.61L930.21 256.87ZM930.07 256.45L929.99 256.55L929.78 256.6L929.8 256.07L930.07 256.22L930.01 256.43L930.03 256.48L930.07 256.45ZM930 255.91L929.95 255.77L930.06 255.65L930.16 255.83L930.1 255.91L930 255.91ZM932.92 262.03L932.89 262.43L932.63 262.72L932.59 262.85L932.68 263.11L932.65 263.29L932.55 263.38L932.34 263.89L932.23 264.05L932.17 264.02L932.08 264.23L932.03 264L931.87 263.84L931.89 263.75L931.67 263.47L931.67 263.2L931.58 263.11L931.55 262.72L931.69 262.11L931.68 261.63L931.28 260.45L931.17 260.4L930.86 259.84L930.87 259.68L930.69 259.36L930.56 259.3L930.38 259.06L929.85 258.94L929.38 258.57L928.86 257.82L928.48 257.64L928.37 257.39L927.77 256.94L927.45 256.55L927.02 256.3L926.74 256.35L926.53 256.31L926.47 256.22L926.54 256.09L926.63 256.16L926.91 256.04L926.92 255.95L926.85 255.93L926.89 255.83L926.65 255.72L926.71 255.5L927.14 256.01L927.28 256.04L927.38 256.22L927.68 256.37L927.8 256.69L928.16 256.72L928.22 256.83L928.42 256.84L928.59 257.09L928.7 257.11L929.09 257.45L929.21 257.68L929.35 257.71L929.43 257.91L929.74 257.94L929.87 258.08L930.1 258.14L930.09 258.26L930.43 258.84L930.9 259.24L931.06 259.69L931.17 259.74L931.25 259.64L931.29 259.7L931.44 260.32L931.64 260.36L931.93 260.61L932.13 260.51L932.24 260.97L932.41 261L932.45 260.95L932.47 261.16L932.62 261.36L932.73 261.75L932.92 262.03ZM925.73 255.41L925.67 255.89L925.44 255.98L925.4 255.9L925.28 255.98L925.22 255.93L924.92 255.97L924.7 255.73L924.55 255.35L924.36 255.28L924.31 255.14L924.41 255.16L924.62 254.97L925.03 254.81L925.62 255.16L925.72 255.32L925.69 255.44L925.73 255.41ZM923.8 251.37L923.95 251.78L923.84 251.83L923.64 251.67L923.64 251.78L923.59 251.76L923.3 251.46L923.25 251.19L923.37 250.89L923.5 250.93L923.73 251.15L923.8 251.37ZM934.47 261.16L934.43 261.47L934.35 261.5L934.25 261.32L934.36 261.13L934.46 261.09L934.47 261.16ZM934.63 261L934.71 261.06L934.66 261.16L934.51 261.1L934.63 261ZM924.54 252.13L924.59 252.14L924.53 252.18L924.38 252.13L924.32 252.18L924.28 252.06L924.37 252.08L924.43 251.97L924.54 252.13Z"/><path data-r="NPP" data-n="Northern" data-pt="Oro" data-es="Oro" data-en="Oro" d="M916.94 276.23L916.97 276.42L917.14 276.4L917.16 276.45L917.39 276.38L917.35 276.5L917.45 277.89L917.38 278.09L917.38 278.37L917.54 278.53L917.66 278.52L917.91 278.77L917.99 279.04L917.95 279.56L918.02 279.66L918.01 279.98L918.1 280.24L918.19 280.32L918.56 280.39L918.8 280.33L918.98 280.15L919.16 280.14L919.21 280.2L919.49 280.13L919.71 279.91L919.73 280.02L919.99 279.99L920.19 280.13L920.11 280.34L920.16 280.37L920.07 280.39L920.18 280.48L920.16 280.55L920.07 280.66L919.94 280.69L919.78 281.14L919.64 281.3L919.61 281.48L919.66 281.85L919.95 281.96L920.26 282.25L919.18 282.67L919.02 282.6L918.88 282.63L918.77 282.75L918.68 283.06L918.74 283.33L918.69 283.52L918.24 283.64L917.92 283.54L917.88 283.38L917.76 283.45L917.15 282.86L916.93 282.87L916.5 282.31L916.28 282.16L916.26 281.97L916.34 281.67L916.17 281.17L915.99 281.04L915.84 280.59L915.66 280.61L915.58 280.23L915.18 279.49L915.24 279.07L915.65 278.34L915.61 278.13L915.42 277.74L914.89 277.3L914.16 276.21L916.94 276.23Z"/><path data-r="NSB" data-n="North Solomons" data-pt="Bougainville" data-es="Bougainville" data-en="of Bougainville" d="M939.99 271.05L940.05 271.38L939.92 271.63L939.86 271.69L939.91 271.38L939.77 271.66L939.71 271.55L939.6 271.59L939.22 271.95L938.75 271.8L938.26 271.35L937.9 270.62L937.99 270.65L938.1 270.34L938.1 269.82L937.51 269.41L937.39 268.98L937.26 268.9L936.93 268.34L936.97 267.98L936.86 267.73L937.03 267.13L937.01 266.97L937.1 267.02L937.13 266.93L936.98 266.45L937.07 266.43L937.18 266.52L937.48 266.92L937.58 266.84L937.84 266.87L937.87 266.97L937.97 266.89L937.95 267.04L938.02 267.08L938.25 267.69L938.27 268.12L938.45 268.17L938.59 268.41L938.68 268.45L938.84 269.13L938.96 269.33L939.07 269.27L939.2 269.45L939.27 269.44L939.35 269.29L939.34 269.44L939.42 269.62L939.52 269.67L939.62 269.92L939.77 270L940 270.58L939.99 271.05ZM937.13 265.61L936.95 266.43L936.88 266.48L936.9 266.4L936.86 266.42L936.78 266.56L936.65 265.72L936.73 265.55L936.74 265.26L936.61 265.33L936.64 265.2L936.9 264.86L936.99 264.88L937.07 265.12L937.03 265.4L937.13 265.61ZM937.41 258.19L937.6 258.69L937.63 258.95L937.34 258.11L937.17 257.98L937.38 258.06L937.41 258.19ZM935.85 262.77L935.98 262.9L935.99 263.11L935.93 263.21L935.8 263.08L935.81 262.98L935.91 263.16L935.97 263.01L935.8 262.82L935.85 262.77ZM935.74 262.67L935.74 262.41L935.74 262.67Z"/><path data-r="SAN" data-n="Sandaun" d="M898.35 264.76L898.86 255.79L898.87 255.67L898.96 255.7L899.06 255.63L899.68 255.81L899.94 256.09L901.25 256.83L901.26 256.94L901.39 257.05L901.71 257.02L901.89 257.23L901.87 257.42L901.99 257.45L902.08 257.4L903.09 257.94L904.33 258.47L904.71 258.55L904.66 259.05L904.59 259.18L904.43 259.15L903.77 258.75L903.46 258.9L903.3 259.31L903.27 259.92L903.34 260.21L903.32 260.49L903.27 260.63L903.09 260.79L902.93 261.24L902.77 261.29L900.98 261.31L900.9 261.36L900.95 261.23L900.82 261.13L900.82 261.05L900.71 261.07L899.57 262.1L899.5 262.9L899.56 263.24L899.92 263.34L901.9 263.36L902.17 263.58L902.14 265.06L902.2 265.43L901.96 266.15L901.7 266.36L898.35 264.76ZM904.19 252.36L904.24 252.22L904.3 252.21L904.33 252.25L904.19 252.36Z"/><path data-r="SHM" data-a="HLA" data-n="Southern Highlands" data-es="Tierras Altas del Sur" d="M902.16 264.69L903.24 264.75L903.39 264.88L903.31 266.73L903.56 267.25L904.52 267.77L904.77 268.12L905.14 268.45L905.86 268.33L906.26 268.5L906.35 268.67L906.59 268.68L907.95 270.01L907.91 270.28L907.67 270.41L907.63 270.75L907.88 270.85L907.96 270.98L907.96 271.13L908.19 271.22L908.3 271.42L905.35 271.79L902.9 271.79L902.53 271.69L902.5 271.32L902.74 268.38L901.64 266.83L901.59 266.68L901.7 266.36L901.96 266.15L902.15 265.63L902.2 265.43L902.16 264.69Z"/><path data-r="WBK" data-n="West New Britain" data-pt="Nova Bretanha Ocidental" data-es="Nueva Bretaña del Oeste" d="M921.4 264.36L921.53 264.29L921.55 264.41L921.48 264.52L921.4 264.36ZM922.59 263.45L922.7 263.56L922.66 263.74L922.56 263.53L922.5 263.58L922.56 263.63L922.51 263.68L922.45 263.71L922.39 263.64L922.59 263.45ZM925.63 269.11L925.35 269.23L925.27 269.17L924.75 269.62L924.58 269.7L924.43 269.67L924.34 269.73L924.3 269.68L924.08 269.74L923.91 269.59L923.68 269.76L923.56 269.59L923.47 269.71L923.49 269.78L923.41 269.83L923.37 269.65L923.17 269.78L923.11 269.72L922.62 269.71L922.36 269.78L922.24 269.64L921.95 269L921.56 268.82L921.27 268.98L921.11 268.93L921.02 269.16L920.77 269.23L920.77 269.16L920.85 269.14L920.85 268.96L920.75 268.87L920.83 268.64L920.8 268.71L920.7 268.72L920.5 268.6L920.31 268.59L920.27 268.54L920.35 268.39L920.25 268.3L920.06 268.33L920.06 268.09L919.82 268.04L919.68 267.88L919.52 268.01L919.35 267.86L919.03 267.76L918.9 267.41L918.98 266.84L919.13 266.59L919.26 266.5L919.49 266.67L919.59 266.86L919.92 266.64L920.13 266.68L920.21 266.79L920.41 266.87L920.54 266.72L920.8 266.58L921.37 266.92L921.45 267.09L921.89 267L921.93 267.04L922.05 266.94L922.09 267.02L922.14 266.97L922.23 267.05L922.33 266.89L922.59 266.76L922.62 266.81L922.72 266.79L922.75 266.63L922.81 266.72L922.77 266.91L922.83 266.97L923.04 266.88L923.09 266.74L923.31 266.82L923.56 266.64L923.64 266.48L923.66 266.36L923.57 266.32L923.49 266.14L923.84 265.66L923.8 265.46L923.93 264.94L924.03 264.85L924.16 264.84L924.37 264.96L924.38 265.08L924.32 265.2L924 265.41L923.99 265.82L923.84 265.93L924.07 266.84L924.47 266.96L924.85 266.57L925.09 266.51L925.36 266.66L925.45 266.93L925.7 266.84L925.87 266.53L926.06 266.53L926.15 266.68L926.27 266.66L926.47 266.49L926.6 266.29L926.63 265.97L926.77 265.57L927.38 264.78L927.69 264.61L927.74 264.44L928.08 264.59L928.2 264.49L928.41 264.68L928.52 264.61L928.62 264.78L928.57 264.84L927.96 264.88L927.65 265.07L927.29 265.71L927 266.42L927.01 266.48L927.19 266.49L927.16 266.7L926.69 267.17L926.44 267.1L926.36 267.48L926.05 267.56L925.88 267.68L925.58 267.7L925.27 267.88L925.23 268.2L925.27 268.36L925.61 268.92L925.63 269.11ZM927.23 264.4L927.32 264.55L927.11 264.63L927.04 264.48L927.15 264.38L927.23 264.4Z"/><path data-r="WHM" data-a="JWK" data-n="Western Highlands" data-es="Tierras Altas Occidentales" d="M907.78 265.73L908.22 265.95L908.4 266.25L908.67 266.42L908.84 266.73L909.08 266.87L909.57 267.81L909.36 267.88L908.89 267.79L908.85 268.43L908.59 268.62L908.53 268.82L908.59 269.18L908.44 269.57L908.08 270.14L906.59 268.68L906.35 268.67L906.26 268.5L906.03 268.37L905.96 268.17L906 268.08L906.57 267.79L906.9 267.53L907.03 267.05L906.89 266.44L907.35 266.14L907.51 265.81L907.6 265.85L907.78 265.73Z"/><path data-r="WPD" data-n="Western" data-pt="Ocidental" data-es="Occidental" d="M897.8 270.25L897.86 270.11L897.82 270.03L897.91 269.89L898.35 264.76L901.7 266.36L901.6 266.6L901.64 266.83L902.74 268.38L902.5 271.32L902.53 271.69L902.68 271.77L903.42 271.79L903.35 272.56L905.57 276.18L905.42 275.98L905.21 275.95L905.49 276.24L905.32 276.37L905.06 276.36L904.76 276.14L904.5 276.2L904.3 276.17L904.22 275.9L903.99 275.82L904.01 275.92L904.18 275.98L904.23 276.19L904.47 276.38L904.58 277.08L904.47 277.13L903.75 277.15L903.63 277.23L903.39 277.25L902.7 277.48L901.95 277.2L901.63 277.3L901.39 277.47L901.21 277.46L901.11 277.39L901.03 276.84L900.65 276.87L900.45 276.99L900.39 277.07L900.43 277.12L900.66 276.95L901 276.93L901.06 277.45L901.19 277.63L901.41 277.6L901.73 277.38L902 277.41L902.43 277.78L902.98 277.98L903.36 278.46L903.65 279.13L903.58 279.86L903.43 280.03L902.88 280.16L902.84 280.23L902.51 280.36L902.15 280.68L901.26 281.25L901.05 281.23L900.78 280.91L900.11 280.6L900.02 280.67L899.42 280.73L899.24 280.82L899.11 280.84L898.88 280.76L898.41 280.89L898.3 280.81L898.11 280.82L897.89 280.57L897.69 280.54L897.23 280.87L897.09 280.88L896.99 280.83L896.67 280.4L897.69 272.02L897.6 271.99L897.6 271.87L897.53 271.89L897.44 271.61L897.49 271.48L897.41 271.32L897.48 271.01L897.44 270.98L897.61 270.85L897.58 270.76L897.65 270.74L897.78 270.44L897.69 270.28L897.8 270.25ZM904.32 278.63L904.42 278.8L904.33 278.98L904.28 278.82L903.78 278.47L903.61 278.19L903.39 278.09L903.22 277.8L903.33 277.79L903.45 277.99L904 278.2L904.03 278.31L904.32 278.63ZM903.78 277.83L903.65 277.71L903.63 277.62L903.69 277.57L903.79 277.62L904.35 277.63L904.4 278.01L904.32 278.06L904.12 278.04L903.96 277.88L903.78 277.83ZM904.97 278.09L904.95 278.22L904.89 278.25L904.86 278.16L904.97 278.09ZM904.63 277.69L904.62 277.81L904.53 277.83L904.4 277.62L904.27 277.54L904.3 277.49L904.55 277.5L904.63 277.69ZM904.73 276.63L904.78 276.79L904.62 276.84L904.55 276.63L904.6 276.57L904.73 276.63ZM904.79 276.41L904.81 276.59L904.52 276.47L904.49 276.32L904.63 276.29L904.79 276.41Z"/></svg>