<svg xmlns="http://www.w3.org/2000/svg" viewBox="0 0 1000 439.1" data-c="VE"><path data-n="" d="M323.07 186.29L323.07 186.26L323.07 186.29Z"/><path data-r="A" data-n="Distrito Capital" data-pt="Capital" data-es="Capital" data-en="Capital" d="M311.87 205.54L312.01 205.64L312.23 205.65L312.26 205.72L312.12 206.14L311.99 206.12L311.68 206.23L311.42 206.1L311.49 205.98L311.7 205.91L311.7 205.77L311.87 205.54Z"/><path data-r="B" data-n="Anzoátegui" d="M316.18 207.17L316.89 207.35L317.13 207.48L316.87 207.4L316.94 207.5L317.11 207.54L317.52 207.34L317.99 207.38L318.14 207.2L318.19 206.86L318.31 206.91L318.24 206.96L318.32 207.01L318.44 206.78L318.61 206.73L318.59 206.78L318.71 206.76L318.76 206.87L318.95 206.99L318.97 207.18L319.17 207.35L319.32 207.33L319.47 207.45L319.74 207.42L320.05 207.23L320.24 207.28L320.31 207.4L320.21 207.48L320.01 207.51L319.97 207.84L320.01 207.95L320.15 207.95L320.15 208.03L320.33 208.19L320.18 208.59L320.46 209.42L320.08 209.95L320.05 210.28L320.19 210.5L320.21 210.73L320.6 210.61L320.97 210.87L321.06 211.06L321.54 211.47L321.71 212.24L321.81 212.35L322.81 212.28L322.76 212.42L322.59 212.41L322.48 212.63L322.51 213.04L322.64 213.2L323.32 213.5L323.3 213.66L323.46 213.83L323.22 213.87L322.89 214.26L322.73 214.27L322.62 214.12L322.21 214.08L321.85 214.21L321.61 214.48L321.41 214.45L321.19 214.73L320.64 214.69L320.37 214.84L320.23 214.8L320 215.23L319.72 215.42L319.49 215.37L319.31 215.42L319.04 215.02L318.89 214.99L318.68 215.26L318.45 215.33L318.25 215.3L318.16 215.36L318.11 215.69L318.29 215.89L318.23 216.09L318.07 216.19L317.83 216.16L317.24 216.58L317.15 216.56L316.53 215.92L316.05 215.77L315.82 215.79L315.74 215.6L315.49 215.57L315.45 215.42L315.51 215.2L316.36 213.89L316.56 213.18L316.52 212.82L316.61 212.52L316.8 212.42L316.91 212.48L317.41 212.49L317.46 212.19L317.65 211.97L317.45 211.63L317.26 211.49L317.21 211.13L316.95 210.86L316.66 210.83L316.41 210.41L316.37 210.12L316.62 209.84L316.6 209.58L316.18 209.4L316.04 209.04L315.85 209.35L315.28 208.89L315.41 208.57L315.32 208.3L315.37 207.89L315.45 207.8L315.54 207.83L315.78 207.68L316.1 207.42L316.18 207.17Z"/><path data-r="C" data-n="Apure" d="M296.09 217.61L295.88 217.54L296.07 217.41L296.48 217.38L296.8 217.67L297.06 217.69L297.34 217.51L297.5 217.19L297.72 217.28L297.84 217.43L297.96 217.45L298.06 217.37L298.11 217.43L298.24 217.37L298.36 217.43L298.5 217.33L299.13 217.37L299.28 217.56L299.64 217.65L300.09 217.98L300.38 217.9L300.6 217.99L300.83 217.97L300.92 217.84L301.13 217.78L301.22 217.63L301.28 217.66L301.34 217.49L301.61 217.38L301.87 216.8L302.24 216.76L302.46 216.39L302.67 216.23L302.86 216.23L303.11 216.01L303.19 216.03L303.48 215.89L304.36 215.02L305.07 215.03L305.43 215.37L305.67 215.3L305.74 215.56L306.06 215.67L306.33 215.61L306.61 215.41L306.79 215.42L307.02 215.53L307.2 215.37L307.35 215.33L307.43 215.42L307.62 215.41L307.67 215.46L308.26 215.11L308.55 215.09L308.73 215.19L309.52 215.3L309.68 215.45L309.69 215.61L309.88 215.66L310.09 215.63L310.25 215.72L310.33 215.89L310.5 216.03L310.78 216.16L311.02 216.06L311.13 216.17L311.31 216.1L311.77 216.23L312.44 216.08L312.51 215.99L312.7 216.26L312.87 216.33L312.97 216.28L313.06 216.48L313.03 216.63L312.75 216.82L312.17 217.87L311.65 218.11L311.24 218.45L311.06 218.5L310.82 218.74L310.79 219L310.9 219.34L310.81 219.66L310.86 219.92L310.58 220.47L310.51 220.88L310.55 221.08L310.43 221.26L310.1 221.52L309.93 221.93L309.71 221.98L309.6 222.14L309.49 222.13L309.26 221.88L308.55 221.7L308.33 221.85L308.27 222L308.11 222.06L307.51 222.06L307.18 222.22L306.78 222.15L306.39 222.25L306.24 222.38L305.76 222.19L305.46 222.18L305.05 222.06L304.51 222.59L304.28 222.3L303.96 222.43L302.18 219.2L302 219.18L301.64 219.33L301.28 219.06L301.11 219.05L300.94 218.77L300.77 218.81L300.59 218.71L300.04 218.83L299.84 219.06L299.7 219.13L299.35 219.12L299.21 219.23L298.95 219.15L298.91 218.99L298.57 218.97L298.42 219.04L298.3 218.96L298.06 218.98L297.99 218.89L297.86 218.9L297.85 218.99L297.56 218.98L297.56 219.05L297.24 219.14L296.93 219.04L296.7 218.84L296.48 218.14L296.52 217.84L296.41 217.64L296.09 217.61Z"/><path data-r="D" data-n="Aragua" d="M309.41 205.97L309.67 205.84L310.77 205.66L310.73 205.79L310.87 206.22L311.03 206.1L311.17 206.09L311.33 206.38L311.3 206.57L311.49 206.72L311.38 207.13L311.43 207.34L311.62 207.52L311.73 207.43L311.8 207.45L311.93 207.68L312.1 207.72L312.31 207.67L312.8 207.84L312.84 208.43L312.71 208.65L312.71 208.82L312.86 209L312.9 209.15L312.79 209.5L312.82 209.76L312.74 209.98L312.44 210.01L311.91 209.76L311.58 209.79L311.64 209.57L311.88 209.47L311.95 209.38L312.03 208.96L311.78 208.88L311.69 208.66L311.38 208.48L311.19 208.02L310.94 208.05L310.9 207.98L310.74 208L310.51 207.77L310.2 207.9L310.13 207.71L309.87 207.59L309.78 207.63L309.91 207.32L309.9 206.79L309.96 206.56L309.9 206.47L309.72 206.42L309.51 206.5L309.37 206.28L309.41 205.97Z"/><path data-r="E" data-n="Barinas" d="M308.43 213.25L308.59 213.49L308.56 213.59L308.67 213.79L308.75 213.76L308.82 213.89L308.9 213.87L308.87 214.05L308.98 214.1L308.97 214.19L309.05 214.25L309.09 214.18L309.11 214.39L309.26 214.38L309.36 214.5L309.49 214.93L309.62 214.98L309.61 215.11L309.55 215.09L309.63 215.31L309.76 215.37L309.68 215.45L309.52 215.3L308.73 215.19L308.55 215.09L308.26 215.11L307.67 215.46L307.62 215.41L307.43 215.42L307.35 215.33L307.2 215.37L307.02 215.53L306.79 215.42L306.61 215.41L306.33 215.61L306.06 215.67L305.74 215.56L305.67 215.3L305.43 215.37L305.07 215.03L304.36 215.02L303.48 215.89L303.19 216.03L303.11 216.01L302.86 216.23L302.67 216.23L302.46 216.39L302.24 216.76L301.87 216.8L301.61 217.38L301.34 217.49L301.28 217.66L301.22 217.63L301.08 217.82L300.92 217.84L300.83 217.97L300.73 218L300.38 217.9L300.09 217.98L299.64 217.65L299.28 217.56L299.13 217.37L298.5 217.33L298.36 217.43L298.24 217.37L298.11 217.43L298.06 217.37L297.96 217.45L297.84 217.43L297.56 217.2L297.46 217.21L297.48 217.07L297.9 217.01L298.82 217.25L298.94 217.21L298.78 217.1L298.48 216.7L298.52 216.49L298.6 216.42L298.6 216.17L299.26 215.55L299.81 214.88L299.97 214.51L299.82 213.87L300.13 213.37L300.2 213.01L300.3 212.91L300.36 212.93L300.59 212.54L300.79 212.33L300.91 212.4L301.02 212.18L301.37 212.03L301.5 211.67L301.77 211.43L302.26 211.41L302.5 211.47L302.96 212.08L303.46 212.45L303.79 212.55L304.02 212.35L304.24 212.63L304.48 212.78L304.92 212.86L305.21 213.4L305.23 213.62L305.37 213.66L305.28 213.86L305.31 213.96L306.02 214.87L306.14 214.75L306.12 214.53L306.26 214.06L306.66 213.69L306.87 213.26L306.94 212.89L307.35 213.01L307.43 212.95L307.63 213.01L308.13 213L308.36 213.11L308.43 213.25Z"/><path data-r="F" data-n="Bolívar" d="M330.17 215.59L329.85 215.96L329.49 215.98L329.38 216.05L329.23 216.36L329.18 216.68L328.79 217.1L329.13 217.87L328.99 218.14L329.02 218.37L329.24 218.62L329.45 218.38L329.74 218.44L329.94 218.63L329.91 218.89L329.75 219.07L329.68 219.33L329.56 219.31L329.19 219.61L328.93 219.71L328.74 219.98L328.64 219.99L328.49 219.88L328.36 219.9L328.17 219.79L328.18 219.99L328.1 220.1L327.72 220.12L327.69 220.19L327.52 220.17L327.34 220.49L327.27 220.76L327.45 221.21L327.38 221.63L327.5 221.93L327.46 222.18L327.35 222.2L327.25 222.39L327.03 222.48L326.82 222.94L326.65 223.1L326.69 223.25L328.4 225.93L328.61 226.05L328.77 226.71L328.72 227.08L328.41 227.52L327.87 227.84L327.65 228.47L327.1 228.64L326.91 228.54L326.69 228.52L326.74 228.8L326.63 228.89L326.15 228.97L326.07 229.42L325.95 229.56L325.47 229.54L325.09 229.91L324.91 229.95L324.74 229.87L324.62 229.9L324.27 230.16L323.51 229.81L323.16 230.07L323.12 230.36L322.64 230.36L322.53 230.43L322.46 230.99L322.58 231.65L322.44 232.01L322.19 232.16L322.02 232.17L321.84 232.03L321.15 230.94L320.76 230.61L320.66 230.63L320.53 231.01L320.41 231.06L320.1 230.75L319.97 230.71L319.68 230.78L319.39 230.7L319.04 230.96L318.92 230.95L318.7 230.17L318.57 230.03L318.03 229.93L317.34 230.02L317.23 229.71L317.31 229.21L317.22 228.38L317.14 228.27L316.45 228.12L316.07 227.46L315.82 226.7L315.73 226.15L315.57 225.84L315.6 225.64L315.93 225.58L316.06 225.3L315.88 225.05L316.01 224.86L316.03 224.7L315.69 224.24L315.81 223.81L315.7 223.75L315.14 223.76L314.88 224.07L314.77 224.06L314.72 223.98L314.65 223.69L314.66 223.38L314.86 222.59L314.84 222.43L314.75 222.34L314.36 222.35L314.17 222.47L313.69 223.62L313.55 223.72L313.28 223.71L313.07 223.88L312.93 223.91L312.8 223.31L312.69 223.18L312.06 223.87L311.65 224.04L311.14 224.12L310.84 224.33L310.68 224.31L310.57 223.98L310.22 223.97L310.23 223.72L310.42 223.14L310.35 222.51L310.04 222.45L309.94 222.34L309.77 222.44L309.58 222.16L309.71 221.98L309.93 221.93L310.1 221.52L310.53 221.15L310.58 220.47L310.86 219.92L310.81 219.66L310.9 219.34L310.79 219L310.82 218.74L311.06 218.5L311.24 218.45L311.65 218.11L312.17 217.87L312.75 216.82L312.92 216.66L313.3 216.68L313.6 216.5L314.08 216.54L314.46 216.22L314.66 215.9L315.01 215.68L315.31 215.67L315.57 215.82L316.05 215.77L316.53 215.92L317.15 216.56L317.24 216.58L317.83 216.16L318.07 216.19L318.23 216.09L318.29 215.89L318.11 215.69L318.16 215.36L318.25 215.3L318.45 215.33L318.68 215.26L318.89 214.99L319.04 215.02L319.31 215.42L319.49 215.37L319.72 215.42L320 215.23L320.23 214.8L320.37 214.84L320.64 214.69L321.19 214.73L321.41 214.45L321.61 214.48L321.85 214.21L322.21 214.08L322.62 214.12L322.73 214.27L322.89 214.26L323.22 213.87L323.4 213.87L323.72 213.6L324.68 214.1L326.4 214.21L326.36 214.51L326.46 214.91L326.99 215.76L327.19 215.98L327.41 215.91L327.73 215.69L327.87 215.68L328.06 215.51L328.2 215.5L328.69 216.24L329.38 215.62L330.17 215.59Z"/><path data-r="G" data-n="Carabobo" d="M308.37 205.47L308.47 205.69L308.68 205.87L309.03 205.87L309.21 205.95L309.38 205.9L309.37 206.28L309.51 206.5L309.65 206.42L309.92 206.49L309.96 206.62L309.9 206.79L309.91 207.32L309.78 207.63L309.87 207.59L310.13 207.71L310.22 208.02L310.19 208.08L310.1 208.03L310 208.25L309.92 208.2L309.7 208.31L309.71 208.16L309.49 207.97L309.41 208.03L309.45 208.37L308.92 208.35L308.86 208.27L308.91 208.14L308.67 208.26L308.22 207.77L308.2 207.64L308.35 207.48L308.26 207.23L307.96 207.71L307.86 207.76L307.81 207.69L307.77 207.02L307.97 206.73L307.9 206.36L307.95 205.85L308.06 205.63L308.18 205.68L308.37 205.47Z"/><path data-r="H" data-n="Cojedes" d="M309.45 208.37L309.51 208.92L309.23 209.13L309.1 209.11L308.88 209.45L308.99 209.73L308.97 210.07L308.88 210.33L309.05 210.81L309.07 211.23L308.91 211.63L308.71 211.85L308.62 212.14L308.54 212.45L308.54 213.21L308.46 213.27L308.4 213.24L308.36 213.11L308.13 213L307.63 213.01L307.43 212.95L307.35 213.01L306.94 212.89L306.74 212.71L306.59 212.36L306.48 212.28L306.67 212.21L306.74 212.24L306.97 212.06L306.83 211.89L306.79 211.71L306.99 210.58L306.44 209.91L306.3 209.84L306.04 208.75L306.12 208.26L306.45 208.27L306.62 207.88L307.02 207.84L307.16 207.67L307.28 207.71L307.26 207.91L307.4 208.01L307.36 208.1L307.43 208.11L307.96 207.71L308.26 207.23L308.35 207.48L308.2 207.64L308.22 207.77L308.64 208.24L308.91 208.14L308.86 208.27L308.92 208.35L309.45 208.37Z"/><path data-r="I" data-n="Falcón" d="M299.99 203.97L301.21 203.2L301.75 203L301.8 203.04L302.23 202.98L302.33 202.85L302.25 202.95L302.25 202.86L302.32 202.82L302.46 202.85L302.9 202.59L303.05 202.61L303.27 202.42L303.31 202.16L303.45 202.32L303.51 202.21L303.63 202.27L303.6 202.03L303.42 201.97L303.49 201.93L303.32 201.79L303.69 202L303.96 202L304.25 202.33L304.41 202.17L304.47 202.04L304.33 201.32L304.3 201.39L304.2 201.33L304.01 201.45L303.94 201.46L303.96 201.4L303.26 201.66L303.15 201.57L303.22 201.34L303.18 201.11L303.25 201.16L303.26 201.01L303.22 200.96L303.16 201.06L303.07 200.7L303.02 200.7L303.1 200.39L303.34 199.95L303.38 199.74L303.56 199.72L303.94 199.41L304.18 199.56L304.39 200.11L304.39 200.9L304.5 201.55L304.69 202.06L304.89 202.19L305.05 202.05L305.5 202.07L305.81 201.91L306.25 202.08L306.37 202.23L306.97 202.25L307.14 202.48L307.47 202.62L307.91 203.16L308.08 203.26L308.13 203.18L308.15 203.45L308.4 204.22L308.37 204.27L308.24 204.17L308.12 204.24L308.43 204.3L308.5 204.37L308.41 204.47L308.28 204.48L308.22 204.58L308.32 205.32L307.63 205.3L307.44 205.15L307.44 204.99L307.34 204.95L306.96 204.95L306.78 205.16L306.61 205.22L306.51 205.08L305.94 205.14L305.09 205.03L304.9 205.09L304.81 204.91L304.46 204.83L304.09 205.07L303.99 205.05L304.05 204.99L304 204.96L303.87 205.08L303.6 205.1L303.32 205.29L303.04 205.25L302.76 205.61L302.52 205.61L302.27 205.89L302.1 205.96L301.89 206.34L301.66 206.43L301.53 206.56L301.34 206.46L301.32 206.15L301.23 206L300.88 206.04L300.73 205.98L300.59 205.76L300.44 205.3L300.48 204.86L300.06 204.28L299.99 203.97Z"/><path data-r="J" data-n="Guárico" data-en="Guárico State" d="M315.37 207.89L315.32 208.3L315.41 208.57L315.3 208.93L315.85 209.35L316.04 209.04L316.18 209.4L316.6 209.58L316.62 209.84L316.37 210.12L316.41 210.41L316.66 210.83L316.95 210.86L317.21 211.13L317.26 211.49L317.45 211.63L317.65 211.97L317.46 212.19L317.41 212.49L316.91 212.48L316.8 212.42L316.61 212.52L316.52 212.82L316.56 213.18L316.36 213.89L315.87 214.59L315.77 214.87L315.46 215.33L315.48 215.56L315.74 215.6L315.82 215.79L315.57 215.82L315.31 215.67L315.01 215.68L314.66 215.9L314.46 216.22L314.14 216.51L314.01 216.55L313.6 216.5L313.3 216.68L313.03 216.63L313.06 216.48L312.99 216.3L312.87 216.33L312.7 216.26L312.51 215.99L312.44 216.08L311.77 216.23L311.31 216.1L311.13 216.17L311.02 216.06L310.78 216.16L310.5 216.03L310.33 215.89L310.25 215.72L310.09 215.63L309.88 215.66L309.69 215.61L309.68 215.45L309.76 215.37L309.72 215.32L309.66 215.35L309.56 215.12L309.62 215.09L309.62 214.98L309.49 214.93L309.33 214.46L309.26 214.38L309.11 214.39L309.09 214.18L309.05 214.25L308.97 214.19L308.98 214.1L308.87 214.05L308.9 213.87L308.82 213.89L308.75 213.76L308.67 213.79L308.56 213.59L308.59 213.49L308.43 213.25L308.55 213.17L308.54 212.45L308.71 211.85L308.91 211.63L309.07 211.23L309.05 210.81L308.88 210.33L308.99 209.8L308.88 209.45L309.1 209.11L309.23 209.13L309.51 208.92L309.43 208L309.55 208L309.71 208.16L309.7 208.31L309.92 208.2L310 208.25L310.1 208.03L310.21 208.07L310.2 207.9L310.47 207.77L310.74 208L310.9 207.98L310.94 208.05L311.19 208.02L311.38 208.48L311.69 208.66L311.78 208.88L312.03 208.96L311.95 209.38L311.88 209.47L311.64 209.57L311.58 209.79L311.97 209.77L312.44 210.01L312.62 210.02L312.74 209.98L312.82 209.76L312.78 209.56L312.9 209.15L312.86 209L312.71 208.82L312.71 208.65L312.84 208.43L312.8 207.84L313.26 207.79L313.43 207.64L313.98 207.91L314.15 207.84L314.2 207.92L314.34 207.88L314.59 207.99L314.88 207.88L315.17 207.96L315.37 207.89Z"/><path data-r="K" data-n="Lara" d="M306.12 208.26L306.09 208.54L305.99 208.67L305.84 208.81L305.52 208.9L305.36 208.87L305.28 208.74L305.29 208.31L305.25 208.32L305.08 208.59L304.94 209.01L304.78 209.12L304.33 209.16L304.29 209.21L304.13 209.93L303.94 210L303.89 209.87L303.5 209.93L303.53 209.75L303.76 209.39L303.61 209.35L303.45 209.41L303.37 209.33L303.13 209.62L303.04 209.87L302.96 209.62L302.84 209.54L302.8 209.24L302.83 209.11L303.16 208.91L302.99 208.6L302.77 208.53L302.64 208.3L302.54 208.37L302.46 208.19L302.33 208.15L302.28 208L301.98 208.11L301.81 207.99L301.67 207.58L301.54 207.63L301.41 207.88L301.4 208.08L301.35 208.07L301.02 207.78L300.9 207.45L301 207.26L301.35 206.98L301.59 206.48L301.89 206.34L302.1 205.96L302.27 205.89L302.52 205.61L302.76 205.61L303.04 205.25L303.32 205.29L303.6 205.1L303.87 205.08L304 204.96L304.05 204.99L303.99 205.05L304.09 205.07L304.46 204.83L304.81 204.91L304.9 205.09L305.09 205.03L305.94 205.14L306.51 205.08L306.61 205.22L306.58 205.43L306.36 205.61L306.2 205.62L306.03 205.97L306.03 206.11L306.15 206.14L306.13 206.78L305.82 206.95L305.68 207.23L305.53 207.07L305.47 207.15L305.53 207.4L305.71 207.72L305.69 207.99L305.79 208.18L305.86 208.1L305.88 207.88L306.16 207.68L306.21 207.72L306.29 207.98L306.12 208.26Z"/><path data-r="L" data-n="Mérida" data-en="Merida" d="M299.63 210.8L299.68 210.62L299.85 210.41L300.08 210.32L300.2 210.17L300.37 210.17L300.51 210.36L300.62 210.98L300.87 211.27L300.97 211.3L301.03 211.54L301.1 211.56L301.39 211.35L301.49 211.48L301.5 211.67L301.37 212.03L301.02 212.18L300.91 212.4L300.79 212.33L300.59 212.54L300.36 212.93L300.3 212.91L300.2 213.01L300.13 213.37L299.82 213.87L299.97 214.51L299.81 214.88L299.26 215.55L298.6 216.17L298.6 216.42L298.52 216.49L298.39 216.21L298.49 215.94L298.46 215.56L298.54 215.41L298.52 215.27L298.31 215.08L298.05 215.06L297.96 215.11L297.68 214.65L297.46 214.62L297.51 214.41L297.72 214.12L297.71 213.8L297.9 213.47L297.81 213.09L297.44 212.98L297.77 212.74L297.85 212.78L297.83 212.95L297.92 212.91L298.06 212.95L298.23 212.57L299.37 211.45L299.58 211.32L299.65 211.52L299.71 211.51L299.79 211.38L299.83 211.08L299.63 210.8Z"/><path data-r="M" data-n="Miranda" d="M313.82 205.34L314 205.26L314.4 205.51L314.56 205.54L314.47 205.64L314.34 205.66L314.33 205.83L314.94 206.55L314.81 206.5L314.77 206.55L314.82 206.65L314.9 206.63L315.15 206.86L315.38 206.88L315.03 206.65L314.98 206.55L315.76 207.02L316.18 207.17L316.1 207.42L315.54 207.83L315.45 207.8L315.23 207.95L314.88 207.88L314.59 207.99L314.34 207.88L314.2 207.92L314.15 207.84L313.98 207.91L313.43 207.64L313.26 207.79L313.04 207.84L312.65 207.82L312.31 207.67L312.06 207.72L311.92 207.67L311.8 207.45L311.73 207.43L311.62 207.52L311.43 207.34L311.38 207.13L311.49 206.72L311.28 206.53L311.33 206.38L311.22 206.14L311.41 206.05L311.68 206.23L311.99 206.12L312.12 206.14L312.27 205.78L312.26 205.63L312.99 205.66L313.07 205.6L313.76 205.71L313.82 205.34Z"/><path data-r="N" data-n="Monagas" d="M322.95 207.35L323.03 207.46L323.11 207.38L323.14 207.69L323.22 207.4L323.26 207.55L323.39 207.51L323.53 207.61L323.52 207.73L323.59 207.65L323.58 207.45L323.64 207.43L323.77 207.53L324.05 207.37L324.09 206.87L324.2 206.87L324.36 207.02L324.56 207.79L324.51 207.97L324.6 208L324.68 208.15L324.81 208.59L324.78 208.84L324.4 209.51L324.43 209.62L324.53 209.68L324.57 209.99L324.71 210.15L324.71 210.79L324.65 210.97L324.81 211L324.95 211.23L325.14 211.13L325.18 211.29L325.29 211.23L325.39 211.26L325.28 211.71L325.35 211.86L325.48 211.9L325.46 212.05L325.3 212.26L325.25 212.51L324.94 212.71L324.76 213.03L324.52 213.06L324.39 213.23L324.19 213.35L323.97 213.33L323.46 213.83L323.3 213.66L323.32 213.5L322.64 213.2L322.51 213.04L322.48 212.63L322.59 212.41L322.76 212.42L322.81 212.28L321.81 212.35L321.71 212.24L321.54 211.47L321.06 211.06L320.96 210.86L320.6 210.61L320.21 210.73L320.19 210.5L320.05 210.28L320.08 209.95L320.46 209.42L320.18 208.59L320.33 208.19L320.15 208.03L320.15 207.95L320.06 207.97L319.98 207.9L320.01 207.51L320.66 207.28L320.96 206.94L321.46 206.85L321.56 206.62L321.7 206.53L321.89 206.64L321.94 206.78L322.39 206.98L322.43 207.07L322.7 206.89L322.72 207.02L322.82 206.99L322.88 207.29L322.95 207.35ZM324.82 208.02L324.81 208.31L324.75 208.2L324.78 208L324.82 208.02ZM324.64 207.69L324.65 207.8L324.58 207.78L324.55 207.54L324.64 207.69Z"/><path data-r="O" data-n="Nueva Esparta" d="M320.44 204.66L320.63 204.78L320.6 204.94L320.35 204.78L320.44 204.66ZM320.89 203.43L321.01 204.04L320.92 204.01L320.92 204.11L320.84 204.07L320.68 204.37L320.46 204.35L320.22 204.48L320.23 204.36L320.12 204.35L320.08 204.21L319.92 204.06L319.78 204.17L319.27 204.06L319.4 203.7L319.83 203.59L319.92 203.66L319.92 203.81L320.11 203.94L320.28 203.97L320.38 203.88L320.39 203.73L320.52 203.49L320.64 203.46L320.81 203.26L320.89 203.43ZM319.9 204.59L319.93 204.65L319.88 204.7L319.75 204.67L319.76 204.61L319.9 204.59Z"/><path data-r="P" data-n="Portuguesa" d="M306.09 208.54L306.04 208.75L306.3 209.84L306.44 209.91L306.91 210.45L307 210.65L306.79 211.71L306.83 211.89L306.97 212.06L306.74 212.24L306.67 212.21L306.48 212.28L306.59 212.36L306.74 212.71L306.94 212.89L306.9 213.14L306.58 213.81L306.27 214.04L306.12 214.53L306.14 214.75L306.02 214.87L305.31 213.96L305.28 213.86L305.37 213.66L305.23 213.62L305.21 213.4L304.92 212.86L304.48 212.78L304.24 212.63L304.02 212.35L303.79 212.55L303.46 212.45L302.96 212.08L302.5 211.47L302.69 211.41L302.87 210.96L302.9 210.55L302.82 210.6L302.7 210.56L302.7 210.5L302.96 210.09L303.13 209.62L303.35 209.34L303.45 209.41L303.61 209.35L303.76 209.39L303.48 209.91L303.79 209.92L303.89 209.87L303.94 210L304.18 209.87L304.22 209.35L304.29 209.21L304.33 209.16L304.78 209.12L304.94 209.01L305.08 208.59L305.25 208.32L305.29 208.31L305.27 208.71L305.41 208.89L305.84 208.81L306.09 208.54Z"/><path data-r="R" data-n="Sucre" d="M318.71 206.76L318.83 206.81L319.15 206.6L319.16 206.52L319.01 206.56L318.91 206.5L318.94 206.46L319.03 206.5L319.17 206.42L319.18 206.31L319.12 206.29L319.18 206.26L319.23 206.44L319.3 206.24L319.67 206.06L319.75 205.91L319.92 205.91L320.19 206.03L320.43 205.98L320.65 206.03L321.25 205.85L321.04 205.84L320.79 205.64L320.51 205.6L320.4 205.52L320.17 205.56L320.22 205.49L320.06 205.57L319.83 205.56L319.63 205.77L319.48 205.37L319.57 205.17L319.65 205.27L319.91 205.38L320.19 205.25L320.23 205.31L320.56 205.33L320.76 205.25L320.87 205.02L321.01 205.2L321.57 205.34L321.83 205.19L322 205.2L322.06 205.07L322.18 205.17L322.47 205.13L322.7 204.94L322.76 205.05L322.87 204.99L323.11 204.99L323.35 205.07L323.99 204.84L325.52 205.12L325.63 205.03L325.86 205.02L326.01 204.94L326.14 204.99L326.4 204.92L326.3 204.98L326.27 205.15L326.24 205.11L326.05 205.25L325.68 205.33L325.26 205.31L324.97 205.71L324.06 205.57L323.31 205.71L323.05 206L323.3 205.78L323.5 205.71L323.54 206.18L323.44 206.24L323.35 206.16L323.08 206.17L323.05 206.26L323.13 206.21L323.18 206.37L323.05 206.5L323.1 206.54L323.02 206.68L323.23 206.64L323.18 206.27L323.23 206.19L323.39 206.31L323.62 206.19L323.72 206.22L323.95 206.61L323.93 206.91L324.04 207.2L323.94 207.41L323.78 207.46L323.61 207.39L323.47 207.56L323.4 207.41L323.27 207.46L323.26 207.33L323.16 207.4L323.09 207.3L323.04 207.35L322.9 207.32L322.84 207.03L322.72 207.02L322.7 206.89L322.43 207.07L322.39 206.98L321.9 206.75L321.89 206.64L321.76 206.53L321.56 206.62L321.46 206.85L320.96 206.94L320.74 207.23L320.35 207.4L320.11 207.23L319.74 207.42L319.47 207.45L319.32 207.33L319.17 207.35L318.97 207.18L318.95 206.99L318.76 206.87L318.71 206.76ZM324 206.33L323.98 206.54L323.87 206.31L323.71 206.16L323.66 206.02L323.7 205.85L324 206.33Z"/><path data-r="S" data-n="Táchira" data-en="Tachira" d="M296.16 215.13L296.21 214.9L296.09 214.41L296.13 214.01L296.06 213.84L296.15 213.64L296.2 213.66L296.26 213.56L296.28 213.43L296.41 213.28L296.53 213.24L296.57 213.78L296.76 213.56L297.12 213.46L297.44 212.98L297.78 213.06L297.89 213.52L297.71 213.8L297.72 214.12L297.51 214.41L297.46 214.62L297.68 214.65L297.96 215.11L298.05 215.06L298.31 215.08L298.52 215.27L298.54 215.41L298.46 215.56L298.49 215.94L298.39 216.21L298.52 216.49L298.48 216.7L298.78 217.1L298.94 217.21L298.82 217.25L297.97 217.01L297.71 217.02L297.46 217.09L297.47 217.23L297.34 217.51L297.06 217.69L296.8 217.67L296.48 217.38L296.11 217.39L295.83 217.52L295.73 217.42L295.66 217.16L295.73 216.92L295.69 216.63L295.74 216.23L295.82 215.93L295.82 215.7L295.74 215.53L295.92 215.33L296 215.13L296.16 215.13Z"/><path data-r="T" data-n="Trujillo" d="M300.13 210.22L300.09 209.44L300.19 209.17L300.66 209.24L300.81 209.2L300.96 208.93L301.07 208.88L301.13 208.63L301.26 208.68L301.43 208.5L301.41 207.88L301.54 207.63L301.63 207.58L301.7 207.6L301.81 207.99L301.98 208.11L302.28 208L302.33 208.15L302.46 208.19L302.54 208.37L302.64 208.3L302.77 208.53L302.96 208.57L303.15 208.83L303.09 208.98L302.98 208.98L302.8 209.16L302.84 209.54L302.96 209.62L303.04 209.87L302.69 210.53L302.82 210.6L302.9 210.55L302.91 210.61L302.87 210.96L302.67 211.43L301.77 211.43L301.5 211.67L301.49 211.48L301.38 211.35L301.05 211.56L300.97 211.3L300.87 211.27L300.62 210.98L300.49 210.32L300.37 210.17L300.13 210.22Z"/><path data-r="U" data-n="Yaracuy" d="M308.32 205.32L308.37 205.47L308.28 205.61L308.18 205.68L308.06 205.63L307.95 205.85L307.9 206.36L307.97 206.73L307.77 207.02L307.76 207.44L307.86 207.76L307.39 208.11L307.35 208.08L307.4 208.01L307.25 207.88L307.28 207.71L307.16 207.67L307.02 207.84L306.62 207.88L306.47 208.25L306.38 208.28L306.12 208.26L306.29 207.98L306.16 207.68L305.88 207.88L305.86 208.1L305.79 208.18L305.69 207.99L305.71 207.72L305.53 207.4L305.47 207.15L305.53 207.07L305.68 207.23L305.82 206.95L306.13 206.78L306.15 206.14L306.05 206.13L306.02 206.06L306.18 205.64L306.32 205.63L306.55 205.46L306.61 205.22L306.78 205.16L306.96 204.95L307.4 204.96L307.44 205.15L307.63 205.3L308.32 205.32Z"/><path data-r="V" data-n="Zulia" d="M300.06 200.73L300.15 200.73L300.1 200.96L300 200.98L299.95 201.09L299.6 201.26L299.12 201.35L298.39 201.62L298.24 201.84L298.27 202.5L298.45 203.12L298.66 203.54L299.03 203.88L299.03 203.93L298.87 203.98L298.84 203.84L298.71 203.8L298.63 203.88L298.76 204.1L298.75 204.4L298.83 204.68L299.08 204.99L298.96 205.31L298.85 205.99L298.47 206.31L298 207.19L297.74 207.38L297.52 207.98L297.27 208.38L297.34 208.65L297.57 209.02L297.68 209.45L297.57 209.22L297.52 209.32L297.64 209.54L297.57 209.62L297.49 209.53L297.52 209.76L297.7 209.61L297.74 209.68L297.75 209.61L297.94 209.84L297.78 209.86L297.76 210.05L297.81 209.89L297.97 209.89L298.16 210.12L298.24 210.05L298.2 210.41L297.96 210.62L298.06 210.59L298.08 210.65L298.14 210.57L298.17 210.6L298.19 210.72L298.13 210.73L298.18 210.88L298.09 211.01L298.2 211.18L298.4 211.32L298.76 211.32L299.47 210.99L299.63 210.8L299.82 211.02L299.79 211.38L299.67 211.53L299.58 211.32L299.37 211.45L298.23 212.57L298.06 212.95L297.99 212.91L297.83 212.95L297.85 212.78L297.68 212.77L297.46 212.94L297.12 213.46L296.76 213.56L296.57 213.78L296.55 213.3L296.47 213.24L296.28 213.43L296.26 213.56L296.2 213.66L296.15 213.64L296.06 213.84L295.89 213.67L295.39 212.82L295.16 211.2L295.19 211.07L295.1 210.97L294.73 211.11L294.63 210.38L294.02 210.85L293.55 210.88L293.53 210.77L293.77 210.46L294.22 209.52L294.43 209.31L294.84 208.43L294.89 207.72L295.09 207.05L295.25 206.01L295.76 205.17L296.01 204.48L296.35 204.1L296.62 203.48L297.01 203.34L297.28 203.35L298.16 201.58L298.28 201.44L299.79 200.94L300.06 200.73ZM300.19 209.17L300.3 208.7L300.18 208.43L300.24 208.28L300.01 207.83L299.96 207.77L299.89 207.79L299.77 207.14L299.52 206.89L299.28 206.2L299.32 205.82L299.13 205.58L299.13 205.49L299.26 205.34L299.18 205.16L299.22 204.92L299.08 204.68L299.29 204.65L299.47 204.71L299.47 204.42L299.6 204.24L299.5 204.24L299.36 204.09L299.99 203.97L300.06 204.28L300.48 204.86L300.44 205.3L300.59 205.76L300.73 205.98L300.88 206.04L301.23 206L301.32 206.15L301.34 206.46L301.53 206.56L301.35 206.98L301 207.26L300.9 207.45L301.02 207.78L301.4 208.08L301.43 208.5L301.26 208.68L301.13 208.63L301.07 208.88L300.96 208.93L300.78 209.22L300.19 209.17Z"/><path data-r="W" data-n="Dependencias Federales" data-pt="Dependências Federais" data-en="Federal Dependencies" d="M316.97 204.11L317.02 204.13L317.02 204.3L316.9 204.37L316.92 204.32L316.7 204.35L316.44 204.22L316.55 204.07L316.69 204.02L316.97 204.11ZM313.35 200.98L313.41 200.98L313.35 201.04L313.25 201.06L313.08 200.98L313.23 200.99L313.34 200.83L313.35 200.98ZM314.7 200.83L314.78 200.85L314.73 200.99L314.65 200.99L314.52 200.85L314.7 200.83ZM318.99 200.54L319.11 200.66L319.09 200.86L318.86 200.8L318.99 200.54ZM312.95 201L312.78 201.1L312.65 201.1L312.78 201.1L312.95 201ZM313.03 200.65L312.79 200.65L313.03 200.65Z"/><path data-r="X" data-n="Vargas" data-es="Estado Vargas" data-en="Vargas state" d="M310.77 205.66L311.4 205.61L311.86 205.41L313.18 205.32L313.5 205.33L313.71 205.41L313.83 205.36L313.76 205.71L313.07 205.6L312.99 205.66L312.01 205.64L311.86 205.54L311.83 205.66L311.7 205.77L311.7 205.91L311.22 206.14L311.03 206.1L310.87 206.22L310.73 205.79L310.77 205.66Z"/><path data-r="Y" data-n="Delta Amacuro" d="M331 213.18L331.52 214.2L331.48 214.37L331.16 214.5L331 214.66L330.9 215.07L330.82 215.17L330.59 215.19L330.17 215.59L329.38 215.62L328.69 216.24L328.2 215.5L328.06 215.51L327.94 215.64L327.73 215.69L327.41 215.91L327.21 215.98L327.13 215.93L326.46 214.91L326.36 214.51L326.4 214.21L324.68 214.1L323.72 213.6L323.97 213.33L324.19 213.35L324.39 213.23L324.52 213.06L324.76 213.03L324.94 212.71L325.25 212.51L325.3 212.26L325.48 211.99L325.48 211.9L325.35 211.86L325.28 211.71L325.39 211.26L325.29 211.23L325.18 211.29L325.14 211.13L324.95 211.23L324.81 211L324.65 210.97L324.71 210.79L324.71 210.15L324.54 209.92L324.53 209.68L324.4 209.57L324.78 208.78L324.8 208.83L324.95 208.6L325.05 208.31L325.04 207.81L325.23 208.3L325.2 208.83L325.07 209.09L325.17 209.05L325.27 208.75L325.28 208.28L325.2 207.97L325.41 208.01L325.46 208.16L325.66 208.21L325.37 207.94L325.13 207.9L325.09 207.84L325.22 207.64L325.69 207.88L326.19 208.5L326.24 208.67L326.11 209.04L326.28 208.62L326.33 208.63L326.41 208.85L326.39 209.24L326.45 208.88L326.21 208.37L326.86 208.54L326.91 208.44L326.67 208.11L326.76 208.1L327.19 208.47L327.33 208.72L327.24 208.43L327.12 208.32L327.3 208.4L327.82 209.11L327.9 209.32L327.94 209.29L327.9 209.22L327.96 209.22L328.11 209.34L328.16 209.29L328.33 209.3L328.58 209.46L328.54 209.63L328.79 209.73L329.02 210.12L328.98 210.39L328.95 210.31L328.9 210.47L328.62 210.6L328.12 211.12L328.03 211.35L328.08 211.32L328.42 210.87L328.5 210.81L328.5 210.88L328.33 211.32L328.05 211.65L327.99 212.05L327.77 212.5L327.66 212.99L327.59 213.06L327.27 212.98L326.78 213.03L326.55 212.9L326.4 212.96L326.41 213.07L326.72 213.29L326.83 213.27L327 213.48L327.22 213.45L327.41 213.79L327.72 213.42L328.09 213.39L328.16 213.45L328 213.53L328.01 213.77L328.03 213.56L328.17 213.52L328.32 213.11L329.12 213L329.3 213.19L329.71 213.28L329.94 212.93L330.03 212.89L330.52 212.93L331 213.18ZM328.21 212.98L328.27 213.11L328.16 213.24L328.1 213.19L328.12 213.33L327.47 213.34L327.61 213.13L327.74 213.13L327.88 213.27L327.86 213.17L327.98 213.01L328.21 212.98ZM328.57 211.4L328.7 211.4L328.8 211.5L328.72 211.53L328.71 211.73L328.5 211.94L328.04 212.18L328.27 211.96L328.57 211.4ZM328.08 211.92L328.14 211.58L328.33 211.5L328.55 211.22L328.78 211.14L328.73 211.31L328.55 211.36L328.25 211.7L328.2 211.84L328.08 211.92ZM328.72 211.06L328.47 211.24L328.56 210.88L328.64 210.8L328.82 210.81L328.72 211.06ZM328.9 210.72L329.07 210.63L329.15 210.77L328.95 210.85L328.8 211.06L328.9 210.72ZM327.15 213.09L327.36 213.13L327.38 213.34L327.5 213.45L327.48 213.57L327.33 213.49L327.28 213.36L327.01 213.35L326.72 213.15L327.15 213.09ZM329 212.57L329.2 212.4L329.18 212.67L329.36 212.7L329.34 212.88L328.8 212.89L328.95 212.57L329 212.57ZM328.44 212.16L328.63 212.11L328.7 212L328.94 212L329.07 211.91L329.05 212.01L329.18 212.3L328.93 212.48L328.69 212.88L328.11 212.87L327.77 213.04L327.8 212.64L327.93 212.43L328.13 212.27L328.44 212.16ZM325.1 207.52L325.11 207.66L324.93 207.78L324.97 207.63L325.1 207.52Z"/><path data-r="Z" data-n="Amazonas" d="M317.23 229.71L316.97 229.41L316.84 229.42L316.76 229.62L316.8 229.79L317 229.97L317.17 230.52L317.52 231.06L317.79 231.35L318.1 231.56L318.43 232.05L318.44 232.35L318.29 232.72L318.36 233.36L318.33 233.84L318.65 234.52L318.94 235.4L318.89 235.82L318.75 236.26L318.82 236.36L319.05 236.37L319.39 236.49L320.12 236.47L320.71 236.55L320.68 237.05L320.56 237.56L320.13 237.64L319.5 238.22L319 238.24L318.78 238.4L318.6 239.57L318.01 240.24L317.86 240.54L317.75 240.53L317.74 240.44L317.83 240.04L317.7 240L317.3 240.34L317.15 240.68L316.78 241L316.48 240.91L316.31 241.1L316.12 241.17L315.95 241.41L315.63 241.46L315.51 242.11L315.38 242.27L315.09 242.28L314.88 242.64L314.84 242.92L314.6 243.24L314.47 243.28L314.35 243.12L314.35 242.93L314.55 242.46L314.5 242.21L314.33 242L313.9 242.04L313.54 242.29L313.25 242.68L312.95 242.79L312.8 242.96L312.59 242.84L312.37 242.91L312.2 242.86L310.71 241.09L310.64 240.84L310.69 240.6L310.56 240.32L310.56 240.03L310.45 239.73L310.43 239.4L310.2 238.53L310.01 238.11L310.07 238.01L310.08 237.73L309.92 237.59L309.8 237.11L309.92 236.84L309.88 236.62L309.5 236.32L309.46 236.18L309.1 235.74L309.02 235.55L308.84 235.53L308.68 235.03L308.56 235.07L308.33 234.92L308.12 234.97L308.03 235.12L308.08 234.75L309.15 233.45L309.37 233.3L309.55 233.01L309.64 232.69L309.4 232.47L309.12 231.58L309.01 231.51L308.85 231.53L308.75 231.41L308.7 231.04L308.59 230.78L308.55 230.29L308.36 229.85L308.32 229.48L308.4 229.17L308.37 228.87L308.15 228.48L308.36 227.43L308.33 227.1L308.45 226.46L308.36 226.2L308.41 225.9L308.34 225.57L308.45 225.26L308.93 224.86L309.02 224.64L308.95 224.03L309.11 223.57L309.46 223.11L309.64 222.98L309.65 222.82L309.47 222.46L309.47 222.31L309.58 222.16L309.77 222.44L309.94 222.34L310.04 222.45L310.35 222.51L310.42 223.14L310.23 223.72L310.22 223.97L310.57 223.98L310.73 224.34L311.3 224.06L311.65 224.04L312.06 223.87L312.69 223.18L312.8 223.31L312.93 223.91L313.07 223.88L313.28 223.71L313.55 223.72L313.69 223.62L314.17 222.47L314.36 222.35L314.72 222.33L314.82 222.4L314.83 222.78L314.66 223.38L314.65 223.69L314.72 223.98L314.77 224.06L314.88 224.07L315.14 223.76L315.7 223.75L315.81 223.81L315.69 224.24L316.03 224.7L316.01 224.86L315.88 225.05L316.06 225.3L315.93 225.58L315.6 225.64L315.57 225.84L315.73 226.15L315.82 226.7L316.07 227.46L316.45 228.12L317.14 228.27L317.22 228.38L317.31 229.21L317.23 229.71Z"/></svg>