<svg xmlns="http://www.w3.org/2000/svg" viewBox="0 0 1000 439.1" data-c="ZA"><path data-r="EC" data-n="Eastern Cape" data-pt="Cabo Oriental" data-es="Oriental del Cabo" d="M575.79 357.84L576.39 357.61L576.84 357.3L577.08 357.71L576.99 357.99L577.04 358.24L577.15 358.38L577.28 358.43L577.33 358.44L577.31 358.35L577.37 358.33L577.46 358.5L577.44 358.7L577.16 358.91L577.07 359.18L577 359.19L577.02 359.33L576.89 359.42L576.94 359.53L577.06 359.62L577.15 359.55L577.4 359.69L577.81 359.55L578.18 359.82L578.29 359.79L578.52 359.91L578.63 359.87L578.84 360.09L579 360.12L579.06 360.31L579.27 360.37L579.3 360.51L579.41 360.61L579.42 360.93L579.55 361.17L578.98 361.92L578.56 362.34L578.27 362.45L577.87 362.93L577.62 363.13L577.25 363.29L577.19 363.47L576.85 363.85L576.65 364.2L576.46 364.29L576.3 364.58L575.62 365.4L574.89 366.06L574.68 366.36L574.07 366.87L573.56 367.14L573.37 367.49L572.93 367.84L572.8 368.02L572.34 368.25L572.08 368.53L571.65 368.84L571.59 368.82L571.49 368.99L570.67 369.54L570.54 369.7L570.05 369.89L569.89 370.03L568.83 370.52L568.34 370.53L567.85 370.36L567.5 370.34L567.05 370.45L566.75 370.63L566.61 370.84L566.54 371.15L566.68 371.29L566.72 371.46L566.64 371.43L566.45 371.5L566.17 371.43L565.97 371.45L565.43 371.2L564.8 371.28L564.69 371.37L564.71 371.52L564.46 371.79L564.44 371.89L564.5 371.95L564.4 372.04L564.32 371.97L563.51 371.88L563.32 371.72L562.96 371.66L562.73 371.52L562.27 371.48L561.39 371.27L561.41 371.11L561.55 370.89L561.11 370.59L560.74 370.58L560.95 370.34L561.44 370.11L561.49 370.02L561.37 369.83L561.35 369.59L561.22 369.47L560.59 369.26L559.26 369.27L559.27 369.01L559.78 368.21L559.81 367.93L559.93 367.68L560.27 367.34L560.28 367.11L560.41 367.3L560.6 367.21L560.94 367.21L561.07 367.07L560.86 366.72L560.88 366.44L560.8 366.16L560.84 365.88L561.08 365.63L561.27 365.66L561.4 365.58L561.81 365.53L562.02 365.23L562.25 365.08L562.58 365.19L562.97 365.01L563.15 364.83L563.24 364.46L563.44 364.23L563.32 364.01L563.43 363.55L564.35 363.37L564.48 362.64L564.6 362.31L565.15 362.26L565.38 362.16L565.72 361.89L566.39 361.6L566.74 361.7L566.82 361.64L567.25 360.67L567.23 360.37L567.33 360.2L567.24 360.04L567.24 359.54L567.62 359.51L567.67 359.69L567.9 359.77L568.33 359.44L568.35 359.31L568.41 359.29L568.5 359.37L568.84 359.19L569.03 359.23L569.08 359.09L569.36 359.29L569.4 359.42L569.85 359.36L569.94 359.6L570.27 359.69L570.29 359.77L570.46 359.76L570.7 359.64L570.88 359.76L571.14 359.64L571.12 359.57L571.21 359.47L571.39 359.44L571.34 359.25L571.62 359.27L571.68 359.23L571.67 359.14L571.82 359.15L571.95 359.06L572.12 359.1L572.18 359L572.11 358.96L572.13 358.89L572.23 358.94L572.29 358.9L572.22 358.76L572.39 358.74L572.44 358.67L572.41 358.62L572.35 358.65L572.31 358.5L572.58 358.47L572.67 358.67L572.77 358.72L572.91 359.1L573.18 359.43L574.12 359.7L574.15 359.44L574.27 359.33L574.35 359.11L574.31 358.99L574.65 358.62L574.57 358.37L574.84 358.23L575.11 357.88L575.3 357.89L575.53 357.78L575.79 357.84Z"/><path data-r="FS" data-n="Free State" data-pt="Estado Livre" data-es="Estado Libre" d="M576.83 353.03L576.65 352.94L576.55 352.73L576.43 352.73L576.4 352.46L576.3 352.31L576.1 352.44L575.61 352.51L575.36 352.79L574.98 352.78L574.55 353.4L574.45 353.41L574.32 353.31L574.13 353.53L573.83 353.51L573.71 353.8L573.5 353.96L573.56 354.07L573.46 354.09L573.4 354.31L573.13 354.6L573.13 354.76L572.92 354.87L572.89 355.01L572.78 355.1L572.79 355.24L572.59 355.54L572.49 355.56L572.34 355.75L572.04 355.85L571.84 356.01L571.78 355.96L571.72 356.06L571.67 356.02L571.6 356.2L571.79 356.44L572.02 357.3L572.18 357.49L572.28 357.84L572.45 357.88L572.33 358.13L572.39 358.48L572.31 358.5L572.35 358.65L572.41 358.62L572.44 358.67L572.39 358.74L572.22 358.76L572.29 358.9L572.23 358.94L572.13 358.89L572.11 358.96L572.18 359L572.12 359.1L571.95 359.06L571.82 359.15L571.67 359.14L571.68 359.23L571.62 359.27L571.34 359.25L571.39 359.44L571.21 359.47L571.12 359.57L571.14 359.64L570.88 359.76L570.7 359.64L570.46 359.76L570.29 359.77L570.27 359.69L569.94 359.6L569.85 359.36L569.4 359.42L569.36 359.29L569.08 359.09L569.03 359.23L568.84 359.19L568.5 359.37L568.41 359.29L568.35 359.31L568.33 359.44L567.9 359.77L567.67 359.69L567.62 359.51L567.24 359.54L566.99 359.3L566.8 359.29L566.73 359.13L566.21 358.54L566.19 358.37L565.89 358.09L565.63 357.33L565.39 357.27L565.32 357.01L565.11 356.9L564.98 356.71L564.89 356.71L564.87 356.62L564.78 356.62L564.58 356.3L564.55 356.14L566.26 352.59L566.19 352.35L566.45 351.52L566.43 351.25L566.64 351.02L566.79 350.52L566.99 350.38L567.14 350.02L567.28 349.99L567.56 349.54L567.71 349.5L567.94 349.27L568.21 349.14L568.29 349.16L568.43 349.04L568.6 349.11L569.03 348.78L569.12 348.79L569.22 348.92L569.54 348.98L569.58 349.25L569.7 349.25L569.69 349.05L569.77 348.89L570.18 348.5L570.28 348.22L570.43 348.16L570.49 348.21L570.6 348.08L571 348.1L570.84 347.96L570.95 347.81L570.97 347.61L570.79 347.33L570.85 347.25L571.01 347.2L571.13 347.05L571.23 347.08L571.28 346.88L571.42 346.71L571.59 346.76L571.64 346.62L571.87 346.45L571.95 346.5L572.08 346.39L572.21 346.54L572.22 346.3L572.28 346.21L572.44 346.42L572.92 346.43L572.92 346.56L573.28 346.2L573.4 346.21L573.51 346.32L573.74 346.25L573.88 345.91L574.03 345.85L574.06 345.76L574.15 345.72L574.22 345.85L574.45 345.82L574.52 345.9L574.57 345.8L574.87 345.71L575.09 345.5L575.18 345.61L575.14 345.67L575.27 346.05L575.51 346.26L575.6 346.2L575.66 346.35L575.84 346.32L575.99 346.45L576.18 346.47L576.25 346.64L576.42 346.58L576.57 346.78L576.52 346.91L576.72 346.74L576.86 346.72L576.77 346.62L576.86 346.54L577.3 346.84L577.46 346.86L577.57 346.74L577.76 346.68L577.92 346.79L577.92 346.96L578.04 347.24L578.33 347.22L578.62 347.45L578.62 347.55L578.75 347.52L578.89 347.61L578.97 347.92L579.11 348.09L579.09 348.18L579.3 348.53L579.48 348.46L579.53 348.32L579.7 348.32L579.57 348.39L579.54 348.57L579.65 348.63L579.67 348.79L579.41 349.04L579.45 349.62L579.11 350.45L579.22 350.65L579.18 350.86L578.95 351.17L578.69 351.22L578.43 351.55L578.25 351.64L578.13 351.79L577.94 351.84L577.83 351.97L577.81 352.17L577.2 352.32L577.08 352.46L577.06 352.62L576.83 353.03Z"/><path data-r="GT" data-n="Gauteng" d="M574.06 345.76L574.13 345.61L574.05 345.61L574.05 345.44L573.73 345.36L573.63 345.42L573.57 345.22L573.49 345.19L573.43 345.32L573.18 345.41L573.16 345.16L573.04 345.17L572.98 344.99L573.18 344.92L573.18 344.66L573.11 344.48L573.5 344.14L573.45 343.63L573.58 343.64L573.73 343.55L573.9 343.13L573.98 342.69L574.49 342.4L574.51 342.56L574.7 342.67L575.25 342.49L575.38 342.17L575.38 341.84L575.46 341.77L575.42 341.63L575.49 341.47L575.65 341.51L575.68 341.43L575.54 341.37L575.57 341.24L575.64 341.2L575.54 341.03L575.48 341.07L575.44 340.98L575.5 340.81L575.6 340.8L575.71 340.94L576.05 340.81L576.06 340.68L576.15 340.66L576.22 340.77L576.36 340.72L576.39 340.64L576.77 340.66L577.04 340.47L577.26 340.48L577.41 340.39L577.28 340.06L577.69 339.91L577.74 340.32L577.68 340.33L577.6 340.51L577.29 340.7L577.32 340.91L577.25 341.02L577.23 341.4L577.3 341.89L577.4 341.96L577.48 341.77L577.58 341.83L577.54 342.04L577.73 342L577.69 341.83L577.74 341.78L577.81 341.83L577.82 341.78L577.79 341.58L577.73 341.59L577.7 341.45L577.85 341.3L577.89 341.5L577.96 341.44L578.07 341.64L578.23 341.55L578.23 341.43L578.32 341.35L578.48 341.31L578.29 341.76L578.08 342.03L578.02 342.53L577.81 342.73L577.74 343.12L577.49 343.15L577.43 343.07L577.12 343.01L577.01 343.12L576.95 343.31L576.82 343.31L576.73 343.39L576.7 343.56L576.78 343.62L576.77 343.9L577 344L577 344.15L577.23 344.32L577.48 344.21L577.6 344.55L577.41 344.64L577.31 344.96L576.98 344.93L576.93 345.05L576.67 344.92L576.58 345.31L576.42 345.45L576.28 345.48L576.27 345.83L576.07 345.97L575.97 346.09L575.96 346.23L575.82 346.32L575.66 346.35L575.6 346.2L575.51 346.26L575.27 346.05L575.14 345.67L575.18 345.61L575.09 345.5L574.87 345.71L574.57 345.8L574.52 345.9L574.45 345.82L574.22 345.85L574.15 345.72L574.06 345.76Z"/><path data-r="LP" data-n="Limpopo" d="M579.85 329.22L580.2 329.27L580.37 329.16L580.63 329.2L580.69 329.1L581.26 329.04L581.46 329.2L581.91 329.38L582.24 329.64L582.48 329.63L582.77 329.83L583.2 329.7L583.51 329.72L583.59 329.78L583.76 329.67L584.16 329.6L584.83 329.8L585.01 329.72L585.17 329.89L585.31 329.9L585.82 332.79L585.7 333.89L586.02 334.5L586.2 335.35L586.41 335.57L586.44 335.73L586.23 335.74L586.02 336.05L585.92 336.03L585.86 335.91L585.71 336.05L585.63 335.98L585.51 336.03L585.32 335.94L585.18 336.08L585.11 336.06L584.97 336.16L584.87 336.13L584.75 336.23L584.65 335.99L584.29 336.16L584.28 336.21L584.38 336.22L584.37 336.32L584.19 336.56L584.17 337.03L584.54 336.99L584.65 337.19L584.43 337.24L584.43 337.45L584.56 337.44L584.65 337.71L584.53 337.89L583.86 337.98L583.86 337.78L583.6 337.81L583.26 337.53L583.21 337.98L583.03 338.11L583.13 338.42L583.02 338.53L582.9 338.54L582.93 338.84L582.81 338.98L582.44 339.3L582.28 338.95L582.13 338.97L582.08 339.05L581.64 338.97L581.59 339.57L581.49 339.61L581.46 339.89L581.39 339.94L581.17 339.75L581.01 339.83L581.07 340.03L581.01 340.69L580.68 340.74L580.6 340.84L580.42 340.81L580.35 340.92L580.1 340.83L579.95 340.93L579.69 340.98L579.23 340.95L579.2 340.85L579 340.85L578.84 340.97L578.8 340.84L578.66 340.92L578.75 340.59L578.57 340.64L578.55 340.54L578.42 340.47L578.47 340.01L578.58 340.03L578.7 339.9L578.44 339.7L578.29 339.75L578.22 339.5L578.15 339.5L578.13 339.33L578.24 339.27L578.2 339.14L577.96 339.28L577.75 339.26L577.53 339.37L577.34 339.5L577.38 339.68L576.95 339.88L576.61 340.13L576.62 340.28L576.68 340.3L577.28 340.06L577.41 340.31L577.39 340.42L577.26 340.48L577.04 340.47L576.77 340.66L576.61 340.66L576.39 340.64L576.25 340.31L575.98 340.22L575.87 340.03L575.89 339.91L575.96 339.88L576.19 339.98L576.27 339.77L576.16 339.64L575.86 339.49L575.04 339.44L574.9 339.52L574.8 339.39L574.68 339.4L574.57 339.48L574.55 339.64L574.36 339.87L574.29 339.69L573.96 339.71L573.77 339.52L573.48 339.46L573.18 338.95L573.12 338.49L572.89 338.73L572.35 339.02L572.02 338.87L571.54 338.8L571.46 338.56L571.47 338.16L571.67 337.94L571.86 337.53L572.13 337.32L572.34 337.05L572.75 336.83L573.24 334.84L573.39 334.55L573.44 334.65L573.53 334.61L573.52 334.43L573.56 334.45L573.68 334.28L573.74 334.3L573.72 334.14L573.8 334.18L573.85 334.1L573.94 334.13L573.9 334.06L574.2 333.87L574.36 333.65L574.39 333.76L574.53 333.64L574.56 333.73L574.64 333.63L574.91 333.54L575.11 333.01L575.25 333.04L575.36 332.93L575.43 333.03L575.51 333.03L575.62 332.82L575.59 332.68L575.72 332.67L575.7 332.6L576.03 332.43L576.07 332.09L576.36 331.9L576.4 331.63L576.69 331.42L576.85 331.02L577.01 330.96L577.16 330.77L577.37 330.67L577.6 330.65L577.77 330.71L577.92 330.61L578.15 330.59L578.59 330.37L578.68 330.21L578.86 330.23L579.02 330L579.03 329.7L579.27 329.39L579.63 329.35L579.85 329.22Z"/><path data-r="MP" data-n="Mpumalanga" d="M586.53 336.87L586.65 337.4L586.64 337.68L586.35 340.84L586.25 341.23L586.29 341.72L585.98 342.43L586.05 342.95L585.89 343.05L585.73 343.04L584.71 342.18L584.47 342.18L583.83 342.78L583.55 343.46L583.33 343.86L582.82 344.53L582.74 344.8L582.68 346.01L582.9 345.88L583.06 346.31L583.02 346.7L583.07 346.82L583.32 347.12L583.46 347.4L583.72 347.53L583.44 347.86L582.97 347.97L582.78 347.81L582.59 347.9L582.23 347.68L581.96 347.8L581.55 347.8L581.51 347.68L581.42 347.65L581.12 347.78L580.75 348.05L580.5 347.99L580.39 348.07L580.16 348L580 348.05L579.8 348.34L579.55 348.31L579.48 348.46L579.3 348.53L579.09 348.18L579.11 348.09L578.97 347.92L578.89 347.61L578.75 347.52L578.62 347.55L578.62 347.45L578.33 347.22L578.04 347.24L577.92 346.96L577.93 346.81L577.76 346.68L577.67 346.68L577.46 346.86L577.3 346.84L576.86 346.54L576.77 346.62L576.86 346.72L576.72 346.74L576.52 346.91L576.57 346.78L576.42 346.58L576.25 346.64L576.18 346.47L575.99 346.45L575.82 346.32L575.96 346.23L575.97 346.09L576.07 345.97L576.27 345.83L576.28 345.48L576.42 345.45L576.58 345.31L576.67 344.92L576.93 345.05L576.98 344.93L577.31 344.96L577.41 344.64L577.6 344.55L577.48 344.21L577.23 344.32L577 344.15L577 344L576.77 343.9L576.78 343.62L576.7 343.56L576.73 343.39L576.82 343.31L576.95 343.31L577.01 343.12L577.12 343.01L577.43 343.07L577.49 343.15L577.74 343.12L577.81 342.73L578.02 342.53L578.08 342.03L578.29 341.76L578.48 341.31L578.32 341.35L578.23 341.43L578.23 341.55L578.07 341.64L577.96 341.44L577.89 341.5L577.85 341.3L577.7 341.45L577.73 341.59L577.79 341.58L577.82 341.78L577.81 341.83L577.74 341.78L577.69 341.83L577.73 342L577.54 342.04L577.58 341.83L577.48 341.77L577.4 341.96L577.3 341.89L577.23 341.4L577.25 341.02L577.32 340.91L577.29 340.7L577.6 340.51L577.68 340.33L577.74 340.32L577.69 339.91L576.8 340.28L576.62 340.28L576.61 340.13L576.95 339.88L577.38 339.68L577.34 339.5L577.53 339.37L577.75 339.26L577.96 339.28L578.2 339.14L578.24 339.27L578.13 339.33L578.15 339.5L578.22 339.5L578.29 339.75L578.44 339.7L578.7 339.9L578.58 340.03L578.47 340.01L578.42 340.47L578.55 340.54L578.57 340.64L578.75 340.59L578.66 340.92L578.8 340.84L578.84 340.97L579 340.85L579.2 340.85L579.23 340.95L579.69 340.98L579.95 340.93L580.1 340.83L580.35 340.92L580.42 340.81L580.6 340.84L580.68 340.74L581.01 340.69L581.07 340.03L581.01 339.83L581.17 339.75L581.39 339.94L581.46 339.89L581.49 339.61L581.59 339.57L581.64 338.97L582.08 339.05L582.13 338.97L582.28 338.95L582.44 339.3L582.93 338.84L582.95 338.68L582.88 338.59L583.13 338.42L583.03 338.11L583.21 337.98L583.26 337.53L583.6 337.81L583.86 337.78L583.86 337.98L584.53 337.89L584.65 337.71L584.56 337.44L584.43 337.45L584.43 337.24L584.65 337.19L584.54 336.99L584.17 337.03L584.19 336.56L584.37 336.32L584.38 336.22L584.28 336.21L584.29 336.16L584.65 335.99L584.75 336.23L584.87 336.13L584.97 336.16L585.11 336.06L585.18 336.08L585.32 335.94L585.51 336.03L585.63 335.98L585.71 336.05L585.86 335.91L585.92 336.03L586.02 336.05L586.23 335.74L586.44 335.73L586.41 336.46L586.53 336.87Z"/><path data-r="NC" data-n="Northern Cape" data-pt="Cabo Setentrional" data-es="Septentrional del Cabo" d="M545.61 350.37L545.76 350.58L545.87 350.63L545.93 351.1L546.29 351.09L546.41 351.51L546.4 351.68L546.18 351.95L546.29 352.27L546.39 352.31L546.41 352.39L546.35 352.78L546.83 352.7L546.93 353L547.02 353.03L547.25 352.94L547.69 353.06L548.02 353.33L548.34 353.49L548.72 353.41L548.95 353.48L549.15 353.39L549.22 353.44L549.38 353.35L549.89 353.27L550.44 353.36L550.54 353.54L550.76 353.69L550.98 353.64L551.19 353.46L551.33 353.42L551.23 353.1L551.33 352.87L551.41 352.84L551.49 352.9L551.81 352.79L552.15 352.17L552.85 351.97L553.05 351.8L553.28 351.78L554.06 338.6L554.38 339.06L554.71 339.26L555.04 339.61L555.21 340.02L555.2 340.21L555.4 340.52L555.43 340.83L555.63 341.05L555.61 341.16L555.74 341.18L555.66 341.24L555.62 341.4L555.74 341.53L555.75 341.63L555.66 341.77L555.74 341.81L555.71 341.97L555.85 342.14L555.85 342.48L555.96 342.49L556.02 342.72L556 343.29L556.09 343.58L555.83 344.1L555.44 344.64L555.38 344.88L555.43 345.25L555.35 345.81L555.52 346.31L555.97 346L556.12 345.98L556.34 346.12L556.69 346.22L557.51 346.06L557.7 346.15L558.14 346.21L558.42 346L558.5 345.54L558.92 345.49L559.25 345.33L559.52 344.97L559.68 344.56L559.83 344.35L560.09 344.25L560.41 343.86L560.66 343.85L560.89 343.51L561.11 343.57L561.04 344.58L561.33 344.71L561.44 344.54L561.67 343.66L561.86 343.68L561.89 343.44L562.07 343.46L562.21 343.06L562.94 343.16L562.86 343.39L562.54 343.32L562.51 343.54L562.72 343.62L562.47 344.07L562.62 344.34L562.55 344.83L563.04 345.01L563.35 345.32L563.08 345.75L563.99 346.29L564.06 346.21L564.21 346.22L564.36 346.38L564.43 346.76L564.38 346.93L564.24 347.06L564.02 347.62L564.32 347.9L564.51 347.98L564.32 348.52L564.33 348.79L564.52 348.95L564.43 349.19L564.48 349.36L565.28 349.15L565.36 349.21L565.27 349.42L565.36 349.5L565.1 349.91L565.31 350.19L565.27 350.41L565.47 350.63L565.74 350.28L565.79 349.93L566 349.66L565.97 349.52L566.05 349.3L565.98 349.13L566.06 349L566.34 348.89L566.3 349.14L566.79 349.15L566.93 349.23L566.33 349.95L566.57 350.62L566.72 350.53L566.79 350.52L566.79 350.57L566.64 351.02L566.43 351.25L566.45 351.52L566.19 352.35L566.26 352.59L564.55 356.14L564.7 356.54L564.87 356.62L564.89 356.71L564.98 356.71L565.18 356.96L565.32 357.01L565.39 357.27L565.63 357.33L565.89 358.09L566.19 358.37L566.21 358.54L566.55 358.98L566.73 359.13L566.8 359.29L566.99 359.3L567.24 359.54L567.24 360.04L567.33 360.2L567.23 360.37L567.25 360.67L566.82 361.64L566.74 361.7L566.39 361.6L565.72 361.89L565.38 362.16L565.15 362.26L564.6 362.31L564.48 362.64L564.35 363.37L563.51 363.52L563.43 363.55L563.4 363.66L563.2 363.6L563.1 363.42L563.03 363.41L562.65 363.7L562.54 363.59L562.53 363.45L562.26 363.24L561.48 363.28L561.17 363.53L560.89 363.94L560.52 364.32L560.43 364L560.22 363.9L559.74 363.82L559.36 363.62L559.06 363.18L558.59 362.9L558.13 363.89L558.02 363.91L557.97 364.02L557.91 364.39L557.95 364.6L557.89 364.73L557.58 365.08L557.25 365.25L556.9 365.14L556.6 365.17L556.1 365.61L555.78 365.71L555.63 365.9L555.46 366L555.23 366.51L554.55 366.75L554.43 366.89L554.28 367.4L554.06 367.59L553.81 367.6L553.65 367.54L553.32 367.66L552.75 366.96L552.55 366L552.57 365.83L552.94 365.39L552.95 365.25L552.85 365.05L552.17 365.64L551.84 365.7L551.49 365.97L551.38 365.94L551.32 365.99L551.2 366.36L551.25 366.5L551.08 366.62L550.93 366.43L551 366.02L550.89 365.74L550.87 365.48L551.07 365.21L551.07 364.7L550.9 364.54L550.78 364.56L550.68 364.5L550.61 364.32L550.5 364.23L550.55 363.99L550.34 364.13L549.94 364.02L550.09 363.52L550.11 362.92L550.07 362.7L550 362.63L550 361.91L549.86 361.59L549.82 360.93L549.9 360.69L549.86 360.48L549.95 360.35L549.98 359.93L549.73 359.83L549.48 359.41L549.04 359.04L548.9 359.05L548.77 359.23L548.64 359.14L548.14 360.13L547.89 360.27L547.6 360.1L547.41 360.25L547.34 360.5L547.17 360.67L547.12 360.92L546.97 361.12L546.93 361.49L546.79 361.44L546.74 361.35L546.32 360.33L546.27 360.03L546.07 359.63L546.09 359.49L545.69 358.6L545.65 358.24L545.53 357.96L545.27 356.79L545.13 355.75L544.97 355.1L544.77 354.62L544.73 354.19L544.53 353.94L544.35 353.51L544.18 353.33L544.11 352.81L544.03 352.78L543.88 352.5L543.93 352.32L544.23 352.15L544.45 351.91L544.52 352.04L544.68 351.91L544.74 351.64L544.82 351.58L544.73 351.36L544.74 351.22L544.89 351.22L544.87 351.04L544.99 351.01L544.94 350.88L545.05 350.89L545.18 350.48L545.29 350.52L545.61 350.37Z"/><path data-r="NL" data-n="KwaZulu-Natal" d="M577.11 353.51L576.83 353.03L577.06 352.62L577.08 352.46L577.2 352.32L577.39 352.24L577.65 352.24L577.81 352.17L577.83 351.97L577.94 351.84L578.13 351.79L578.25 351.64L578.43 351.55L578.69 351.22L578.95 351.17L579.18 350.86L579.22 350.65L579.11 350.45L579.45 349.62L579.4 349.07L579.67 348.79L579.65 348.63L579.54 348.57L579.57 348.39L579.7 348.32L579.8 348.34L579.96 348.07L580.16 348L580.39 348.07L580.5 347.99L580.75 348.05L581.12 347.78L581.42 347.65L581.51 347.68L581.55 347.8L581.96 347.8L582.23 347.68L582.59 347.9L582.78 347.81L582.97 347.97L583.44 347.86L583.72 347.53L584.45 347.81L585.63 347.83L585.64 347.06L585.87 346.01L586.09 346.02L586.27 346.14L586.82 346.2L588.28 346.15L588.04 347.14L587.93 347.3L587.46 348.56L586.88 350.89L586.51 351.58L586.4 351.66L586.46 351.81L586.29 352.25L585.41 353.12L585.34 353.05L585.23 353.07L585.16 353.15L585.21 353.24L585.37 353.14L585.19 353.36L584.84 353.57L584.52 353.56L584.55 353.66L583.3 355.01L582.74 355.82L582.31 356.63L582.28 356.91L582.14 356.94L582.12 357.03L582.3 356.93L582.25 357.05L581.77 357.55L580.85 359.24L580.16 360.36L579.55 361.17L579.42 360.93L579.41 360.61L579.3 360.51L579.27 360.37L579.06 360.31L579 360.12L578.84 360.09L578.63 359.87L578.52 359.91L578.29 359.79L578.18 359.82L577.81 359.55L577.45 359.69L577.15 359.55L577.06 359.62L576.89 359.42L577.02 359.33L577 359.19L577.07 359.18L577.16 358.91L577.44 358.7L577.46 358.5L577.37 358.33L577.31 358.35L577.33 358.44L577.28 358.43L577.15 358.38L577.04 358.24L576.99 357.99L577.08 357.71L576.84 357.3L577.22 357.06L577.13 356.76L577.17 356.49L577.33 356.2L577.66 356.01L577.72 355.86L577.71 355.56L578.07 355.33L578.17 355.05L578.02 354.49L577.92 354.36L577.93 354.15L577.66 354.08L577.47 353.81L577.29 353.71L577.26 353.56L577.11 353.51Z"/><path data-r="NW" data-n="North West" data-pt="Noroeste" data-es="Noroeste" d="M571.26 338.12L571.47 338.16L571.46 338.56L571.54 338.8L572.02 338.87L572.29 339.01L572.39 339.01L572.89 338.73L573.12 338.49L573.18 338.95L573.48 339.46L573.77 339.52L573.96 339.71L574.29 339.69L574.36 339.87L574.55 339.64L574.61 339.43L574.8 339.39L574.9 339.52L575.04 339.44L575.86 339.49L576.16 339.64L576.27 339.77L576.19 339.98L575.96 339.88L575.89 339.91L575.87 340.03L576.01 340.25L576.25 340.31L576.39 340.64L576.36 340.72L576.22 340.77L576.15 340.66L576.06 340.68L576.05 340.81L575.71 340.94L575.6 340.8L575.5 340.81L575.44 340.98L575.48 341.07L575.54 341.03L575.64 341.2L575.57 341.24L575.54 341.37L575.68 341.43L575.65 341.51L575.49 341.47L575.42 341.63L575.46 341.77L575.38 341.84L575.38 342.17L575.25 342.49L574.7 342.67L574.51 342.56L574.49 342.4L573.98 342.69L573.9 343.13L573.73 343.55L573.58 343.64L573.45 343.63L573.5 344.14L573.11 344.48L573.18 344.66L573.18 344.92L572.98 344.99L573.04 345.17L573.16 345.16L573.18 345.41L573.43 345.32L573.49 345.19L573.57 345.22L573.63 345.42L573.73 345.36L574.05 345.44L574.05 345.61L574.13 345.61L574.03 345.85L573.88 345.91L573.84 346.1L573.71 346.27L573.51 346.32L573.4 346.21L573.28 346.2L572.92 346.56L572.92 346.43L572.44 346.42L572.28 346.21L572.22 346.3L572.21 346.54L572.06 346.39L571.95 346.5L571.89 346.44L571.78 346.5L571.64 346.62L571.59 346.76L571.42 346.71L571.28 346.88L571.23 347.08L571.13 347.05L570.79 347.33L570.97 347.61L570.95 347.81L570.84 347.96L571 348.1L570.6 348.08L570.49 348.21L570.43 348.16L570.28 348.22L570.18 348.5L569.77 348.89L569.69 349.05L569.7 349.25L569.58 349.25L569.54 348.98L569.22 348.92L569.09 348.77L568.6 349.11L568.43 349.04L568.29 349.16L567.99 349.24L567.71 349.5L567.56 349.54L567.36 349.9L567.28 349.99L567.14 350.02L566.94 350.44L566.61 350.63L566.33 349.95L566.93 349.23L566.79 349.15L566.3 349.14L566.34 348.89L566.25 348.89L565.99 349.1L565.99 349.24L566.05 349.3L565.97 349.52L566 349.66L565.79 349.93L565.74 350.28L565.47 350.63L565.27 350.41L565.31 350.19L565.1 349.91L565.36 349.5L565.27 349.42L565.36 349.21L565.28 349.15L564.48 349.36L564.43 349.19L564.52 348.95L564.33 348.79L564.32 348.52L564.51 347.98L564.32 347.9L564.02 347.62L564.24 347.06L564.38 346.93L564.43 346.76L564.36 346.38L564.21 346.22L564.06 346.21L563.99 346.29L563.08 345.75L563.35 345.32L563.04 345.01L562.55 344.83L562.62 344.34L562.47 344.07L562.72 343.62L562.51 343.54L562.54 343.32L562.86 343.39L562.94 343.16L562.21 343.06L562.07 343.46L561.89 343.44L561.86 343.68L561.67 343.66L561.44 344.54L561.33 344.71L561.04 344.58L561.11 343.57L560.89 343.51L561.02 343.29L561.02 343.18L561.2 342.99L561.18 342.71L561.35 342.48L561.29 342.3L561.5 341.94L561.58 341.68L561.53 341.57L561.64 341.23L562.19 340.58L562.29 340.67L562.69 340.46L563.13 340.55L563.31 340.5L563.92 341.13L564.07 341.19L564.52 341.77L564.69 341.73L564.73 341.86L565.22 341.75L565.6 342.21L565.74 342.24L565.92 342.18L566.37 342.44L566.82 342.49L567.13 342.4L567.42 342.18L567.86 342.25L568.43 342.18L569 341.73L569.98 339.08L569.99 338.58L570.26 338.53L570.4 338.42L571.26 338.12Z"/><path data-r="WC" data-n="Western Cape" data-pt="Cabo Ocidental" data-es="Occidental del Cabo" d="M561.38 371.26L560.72 371.44L560.64 371.56L560.75 371.71L559.86 371.62L559.84 371.48L559.71 371.43L559.8 371.61L559.53 371.62L559.19 371.46L559.17 371.37L559.24 371.34L559.03 371.26L559.16 371.43L559.11 371.45L558.64 371.31L558.29 371.53L557.82 371.53L557.6 371.59L557.37 371.82L557.46 371.95L556.92 372.11L556.75 372.49L556.46 372.65L556.24 372.68L555.82 372.54L555.2 372.8L554.68 372.61L554.2 372.58L553.91 372.71L554.04 372.77L553.99 372.94L553.53 372.84L553.06 372.95L552.32 373.66L552.23 373.66L551.92 373.87L551.84 373.98L551.86 374.09L551.71 374.16L551.36 373.91L550.95 373.93L550.82 374L550.21 373.41L549.94 373.46L550.15 373.15L550.11 372.95L549.98 372.74L549.57 372.75L549.46 372.59L549.57 372.5L549.62 372.35L549.48 372.51L549.25 372.5L548.79 372.65L548.75 372.56L548.86 372.21L548.83 371.97L548.93 371.85L548.79 371.64L548.16 371.59L547.96 371.7L547.84 371.88L547.92 372.11L547.88 372.41L547.92 372.51L547.81 372.49L547.67 372.24L547.69 372.1L547.62 371.94L547.52 371.83L547.66 371.52L547.58 371.55L547.55 371.44L547.72 371.08L547.81 371L548 370.99L548.04 370.86L547.94 370.29L547.87 370.07L547.68 369.84L547.61 369.42L547.28 369.11L547.3 368.98L547.15 368.62L546.92 368.4L546.84 368.23L546.95 368.18L547.19 368.57L547.27 368.56L547.19 368.35L547.06 368.23L547.04 367.93L546.82 367.9L546.86 367.97L546.74 368.04L546.7 367.97L546.64 367.55L546.7 367.42L546.61 367.26L546.77 367.15L546.84 366.89L547 366.85L547.13 367.07L547.24 367.12L547.44 367.01L547.78 366.65L547.97 366.11L547.96 365.6L548.07 365.31L547.96 364.02L547.87 363.8L547.84 363.46L547.33 362.44L547.08 362.11L547.04 361.85L546.79 361.44L546.93 361.49L546.97 361.12L547.12 360.92L547.17 360.67L547.34 360.5L547.41 360.25L547.6 360.1L547.89 360.27L548.14 360.13L548.64 359.14L548.77 359.23L548.9 359.05L549.04 359.04L549.48 359.41L549.73 359.83L549.98 359.93L549.95 360.35L549.86 360.48L549.9 360.69L549.82 360.93L549.86 361.59L550 361.91L550 362.63L550.07 362.7L550.11 362.92L550.09 363.52L549.94 364.02L550.34 364.13L550.55 363.99L550.5 364.23L550.61 364.32L550.68 364.5L550.78 364.56L550.9 364.54L551.07 364.7L551.07 365.21L550.87 365.48L550.89 365.74L551 366.02L550.93 366.43L551.08 366.62L551.23 366.54L551.2 366.36L551.32 365.99L551.38 365.94L551.49 365.97L551.84 365.7L552.17 365.64L552.85 365.05L552.95 365.25L552.94 365.39L552.57 365.83L552.57 366.22L552.75 366.96L553.32 367.66L553.65 367.54L553.81 367.6L554.06 367.59L554.28 367.4L554.43 366.89L554.55 366.75L555.23 366.51L555.46 366L555.63 365.9L555.78 365.71L556.1 365.61L556.38 365.41L556.47 365.24L556.9 365.14L557.25 365.25L557.58 365.08L557.89 364.73L557.95 364.6L557.91 364.39L557.97 364.02L558.02 363.91L558.13 363.89L558.59 362.9L559.06 363.18L559.36 363.62L559.74 363.82L560.22 363.9L560.43 364L560.52 364.32L560.89 363.94L561.17 363.53L561.48 363.28L562.26 363.24L562.53 363.45L562.54 363.59L562.65 363.7L562.94 363.44L563.1 363.42L563.2 363.6L563.4 363.66L563.42 363.76L563.32 364.01L563.44 364.23L563.24 364.46L563.15 364.83L562.97 365.01L562.58 365.19L562.25 365.08L562.16 365.12L561.81 365.53L561.4 365.58L561.27 365.66L561.08 365.63L560.84 365.88L560.8 366.16L560.88 366.44L560.86 366.72L561.07 367.07L560.94 367.21L560.6 367.21L560.41 367.3L560.28 367.11L560.27 367.34L559.93 367.68L559.81 367.93L559.78 368.21L559.23 369.13L559.26 369.27L560.59 369.26L561.04 369.38L561.35 369.59L561.37 369.83L561.49 370.02L561.44 370.11L560.95 370.34L560.74 370.58L561.11 370.59L561.55 370.89L561.38 371.26ZM590.15 413.39L590.52 413.44L590.67 413.58L590.56 413.74L590.4 413.82L589.96 413.78L589.89 413.62L590.15 413.39ZM590.76 412.8L590.88 412.69L590.99 412.68L591.05 412.74L591.03 412.83L590.93 412.86L590.76 412.8Z"/></svg>